<?xml version="1.0" encoding="utf-8" standalone="no"?>
<!DOCTYPE svg PUBLIC "-//W3C//DTD SVG 1.1//EN"
  "http://www.w3.org/Graphics/SVG/1.1/DTD/svg11.dtd">
<svg xmlns:xlink="http://www.w3.org/1999/xlink" width="576pt" height="396pt" viewBox="0 0 576 396" xmlns="http://www.w3.org/2000/svg" version="1.1">
 <metadata>
  <rdf:RDF xmlns:dc="http://purl.org/dc/elements/1.1/" xmlns:cc="http://creativecommons.org/ns#" xmlns:rdf="http://www.w3.org/1999/02/22-rdf-syntax-ns#">
   <cc:Work>
    <dc:type rdf:resource="http://purl.org/dc/dcmitype/StillImage"/>
    <dc:date>2026-07-28T23:28:15.376132</dc:date>
    <dc:format>image/svg+xml</dc:format>
    <dc:creator>
     <cc:Agent>
      <dc:title>Matplotlib v3.11.1, https://matplotlib.org/</dc:title>
     </cc:Agent>
    </dc:creator>
   </cc:Work>
  </rdf:RDF>
 </metadata>
 <defs>
  <style type="text/css">*{stroke-linejoin: round; stroke-linecap: butt}</style>
 </defs>
 <g id="figure_1">
  <g id="patch_1">
   <path d="M 0 396 
L 576 396 
L 576 0 
L 0 0 
z
" style="fill: #ffffff"/>
  </g>
  <g id="axes_1">
   <g id="patch_2">
    <path d="M 54.921641 314.096992 
L 564.12 314.096992 
L 564.12 56.072051 
L 54.921641 56.072051 
z
" style="fill: #ffffff"/>
   </g>
   <g id="matplotlib.axis_1">
    <g id="xtick_1">
     <g id="line2d_1">
      <defs>
       <path id="m2b2114c954" d="M 0 0 
L 0 3.5 
" style="stroke: #000000; stroke-width: 0.8"/>
      </defs>
      <g>
       <use xlink:href="#m2b2114c954" x="120.578943" y="314.096992" style="stroke: #000000; stroke-width: 0.8"/>
      </g>
     </g>
     <g id="text_1">
      <!-- Gemini 3.5 Flash -->
      <g transform="translate(77.302537 330.888496) scale(0.11 -0.11)">
       <defs>
        <path id="MicrosoftJhengHeiBold-2a" d="M 4350 328 
Q 3625 -81 2678 -81 
Q 1594 -81 944 578 
Q 294 1238 294 2353 
Q 294 3481 1014 4201 
Q 1734 4922 2869 4922 
Q 3650 4922 4206 4681 
L 4206 3913 
Q 3634 4266 2822 4266 
Q 2056 4266 1568 3750 
Q 1081 3234 1081 2397 
Q 1081 1534 1529 1051 
Q 1978 569 2744 569 
Q 3250 569 3597 756 
L 3597 1969 
L 2569 1969 
L 2569 2606 
L 4350 2606 
L 4350 328 
z
" transform="scale(0.015625)"/>
        <path id="MicrosoftJhengHeiBold-48" d="M 3413 1531 
L 1038 1531 
Q 1084 484 2103 484 
Q 2678 484 3150 828 
L 3150 222 
Q 2688 -81 1934 -81 
Q 1166 -81 731 387 
Q 297 856 297 1700 
Q 297 2500 764 3019 
Q 1231 3538 1934 3538 
Q 2634 3538 3023 3095 
Q 3413 2653 3413 1878 
L 3413 1531 
z
M 2700 2066 
Q 2697 2509 2497 2746 
Q 2297 2984 1928 2984 
Q 1594 2984 1347 2732 
Q 1100 2481 1041 2066 
L 2700 2066 
z
" transform="scale(0.015625)"/>
        <path id="MicrosoftJhengHeiBold-50" d="M 5631 0 
L 4897 0 
L 4897 1981 
Q 4897 2494 4731 2722 
Q 4566 2950 4203 2950 
Q 3891 2950 3666 2662 
Q 3441 2375 3441 1959 
L 3441 0 
L 2709 0 
L 2709 2031 
Q 2709 2950 2006 2950 
Q 1681 2950 1467 2672 
Q 1253 2394 1253 1953 
L 1253 0 
L 519 0 
L 519 3456 
L 1253 3456 
L 1253 2913 
L 1269 2913 
Q 1641 3538 2356 3538 
Q 3084 3538 3341 2847 
Q 3728 3538 4497 3538 
Q 5631 3538 5631 2134 
L 5631 0 
z
" transform="scale(0.015625)"/>
        <path id="MicrosoftJhengHeiBold-4c" d="M 441 4644 
Q 441 4828 567 4948 
Q 694 5069 888 5069 
Q 1078 5069 1209 4948 
Q 1341 4828 1341 4644 
Q 1341 4459 1209 4339 
Q 1078 4219 888 4219 
Q 697 4219 569 4341 
Q 441 4463 441 4644 
z
M 513 0 
L 513 3456 
L 1247 3456 
L 1247 0 
L 513 0 
z
" transform="scale(0.015625)"/>
        <path id="MicrosoftJhengHeiBold-51" d="M 3553 0 
L 2822 0 
L 2822 1953 
Q 2822 2950 2097 2950 
Q 1731 2950 1492 2673 
Q 1253 2397 1253 1972 
L 1253 0 
L 519 0 
L 519 3456 
L 1253 3456 
L 1253 2891 
L 1269 2891 
Q 1653 3538 2394 3538 
Q 3553 3538 3553 2113 
L 3553 0 
z
" transform="scale(0.015625)"/>
        <path id="MicrosoftJhengHeiBold-3" transform="scale(0.015625)"/>
        <path id="MicrosoftJhengHeiBold-16" d="M 463 884 
Q 959 506 1588 506 
Q 2053 506 2331 732 
Q 2609 959 2609 1347 
Q 2609 2200 1366 2200 
L 953 2200 
L 953 2791 
L 1341 2791 
Q 2450 2791 2450 3588 
Q 2450 4331 1603 4331 
Q 1103 4331 647 3994 
L 647 4650 
Q 1125 4922 1778 4922 
Q 2403 4922 2801 4605 
Q 3200 4288 3200 3750 
Q 3200 2797 2231 2534 
L 2231 2522 
Q 2744 2472 3053 2155 
Q 3363 1838 3363 1375 
Q 3363 700 2873 309 
Q 2384 -81 1600 -81 
Q 891 -81 463 172 
L 463 884 
z
" transform="scale(0.015625)"/>
        <path id="MicrosoftJhengHeiBold-11" d="M 350 363 
Q 350 553 487 678 
Q 625 803 816 803 
Q 1003 803 1140 679 
Q 1278 556 1278 363 
Q 1278 181 1147 51 
Q 1016 -78 809 -78 
Q 619 -78 484 48 
Q 350 175 350 363 
z
" transform="scale(0.015625)"/>
        <path id="MicrosoftJhengHeiBold-18" d="M 553 822 
Q 1053 506 1578 506 
Q 2047 506 2340 762 
Q 2634 1019 2634 1456 
Q 2634 2363 1472 2363 
Q 1197 2363 700 2316 
L 700 4841 
L 3159 4841 
L 3159 4209 
L 1359 4209 
L 1359 2950 
Q 1631 2966 1769 2966 
Q 2513 2966 2947 2581 
Q 3381 2197 3381 1513 
Q 3381 784 2900 351 
Q 2419 -81 1616 -81 
Q 928 -81 553 122 
L 553 822 
z
" transform="scale(0.015625)"/>
        <path id="MicrosoftJhengHeiBold-29" d="M 3181 4197 
L 1356 4197 
L 1356 2694 
L 3041 2694 
L 3041 2053 
L 1356 2053 
L 1356 0 
L 606 0 
L 606 4841 
L 3181 4841 
L 3181 4197 
z
" transform="scale(0.015625)"/>
        <path id="MicrosoftJhengHeiBold-4f" d="M 513 0 
L 513 5116 
L 1247 5116 
L 1247 0 
L 513 0 
z
" transform="scale(0.015625)"/>
        <path id="MicrosoftJhengHeiBold-44" d="M 603 3225 
Q 1131 3538 1825 3538 
Q 3134 3538 3134 2184 
L 3134 0 
L 2422 0 
L 2422 525 
L 2406 525 
Q 2053 -81 1356 -81 
Q 847 -81 555 194 
Q 263 469 263 934 
Q 263 1909 1422 2072 
L 2425 2209 
Q 2425 2981 1747 2981 
Q 1125 2981 603 2578 
L 603 3225 
z
M 1663 1606 
Q 1288 1556 1133 1415 
Q 978 1275 978 1003 
Q 978 775 1143 629 
Q 1309 484 1569 484 
Q 1938 484 2181 745 
Q 2425 1006 2425 1403 
L 2425 1709 
L 1663 1606 
z
" transform="scale(0.015625)"/>
        <path id="MicrosoftJhengHeiBold-56" d="M 356 803 
Q 841 475 1363 475 
Q 2050 475 2050 900 
Q 2050 1078 1906 1192 
Q 1763 1306 1259 1494 
Q 731 1697 547 1926 
Q 363 2156 363 2503 
Q 363 2981 763 3259 
Q 1163 3538 1753 3538 
Q 2206 3538 2600 3388 
L 2600 2738 
Q 2206 2981 1719 2981 
Q 1441 2981 1269 2865 
Q 1097 2750 1097 2563 
Q 1097 2378 1223 2272 
Q 1350 2166 1806 1991 
Q 2369 1784 2573 1551 
Q 2778 1319 2778 972 
Q 2778 481 2378 200 
Q 1978 -81 1328 -81 
Q 772 -81 356 113 
L 356 803 
z
" transform="scale(0.015625)"/>
        <path id="MicrosoftJhengHeiBold-4b" d="M 3547 0 
L 2813 0 
L 2813 1981 
Q 2813 2950 2097 2950 
Q 1734 2950 1493 2672 
Q 1253 2394 1253 1963 
L 1253 0 
L 519 0 
L 519 5116 
L 1253 5116 
L 1253 2903 
L 1269 2903 
Q 1663 3538 2378 3538 
Q 3547 3538 3547 2125 
L 3547 0 
z
" transform="scale(0.015625)"/>
       </defs>
       <use xlink:href="#MicrosoftJhengHeiBold-2a"/>
       <use xlink:href="#MicrosoftJhengHeiBold-48" transform="translate(75.046875 0)"/>
       <use xlink:href="#MicrosoftJhengHeiBold-50" transform="translate(132.21875 0)"/>
       <use xlink:href="#MicrosoftJhengHeiBold-4c" transform="translate(227.28125 0)"/>
       <use xlink:href="#MicrosoftJhengHeiBold-51" transform="translate(254.828125 0)"/>
       <use xlink:href="#MicrosoftJhengHeiBold-4c" transform="translate(317.421875 0)"/>
       <use xlink:href="#MicrosoftJhengHeiBold-3" transform="translate(344.96875 0)"/>
       <use xlink:href="#MicrosoftJhengHeiBold-16" transform="translate(369.96875 0)"/>
       <use xlink:href="#MicrosoftJhengHeiBold-11" transform="translate(429.546875 0)"/>
       <use xlink:href="#MicrosoftJhengHeiBold-18" transform="translate(454.984375 0)"/>
       <use xlink:href="#MicrosoftJhengHeiBold-3" transform="translate(514.5625 0)"/>
       <use xlink:href="#MicrosoftJhengHeiBold-29" transform="translate(539.5625 0)"/>
       <use xlink:href="#MicrosoftJhengHeiBold-4f" transform="translate(593.515625 0)"/>
       <use xlink:href="#MicrosoftJhengHeiBold-44" transform="translate(621.0625 0)"/>
       <use xlink:href="#MicrosoftJhengHeiBold-56" transform="translate(677.125 0)"/>
       <use xlink:href="#MicrosoftJhengHeiBold-4b" transform="translate(724.34375 0)"/>
      </g>
      <!-- (Cloud Reference) -->
      <g transform="translate(73.203318 341.888496) scale(0.11 -0.11)">
       <defs>
        <path id="MicrosoftJhengHeiBold-b" d="M 1553 -1100 
Q 494 97 494 1850 
Q 494 3581 1553 4841 
L 2181 4841 
Q 1138 3534 1138 1853 
Q 1138 181 2181 -1100 
L 1553 -1100 
z
" transform="scale(0.015625)"/>
        <path id="MicrosoftJhengHeiBold-26" d="M 3963 191 
Q 3425 -81 2609 -81 
Q 1559 -81 926 580 
Q 294 1241 294 2325 
Q 294 3456 995 4189 
Q 1697 4922 2803 4922 
Q 3500 4922 3963 4728 
L 3963 3969 
Q 3450 4256 2828 4256 
Q 2038 4256 1559 3736 
Q 1081 3216 1081 2375 
Q 1081 1572 1529 1075 
Q 1978 578 2731 578 
Q 3431 578 3963 900 
L 3963 191 
z
" transform="scale(0.015625)"/>
        <path id="MicrosoftJhengHeiBold-52" d="M 297 1697 
Q 297 2550 783 3044 
Q 1269 3538 2106 3538 
Q 2897 3538 3356 3059 
Q 3816 2581 3816 1753 
Q 3816 919 3331 419 
Q 2847 -81 2038 -81 
Q 1244 -81 770 403 
Q 297 888 297 1697 
z
M 1044 1713 
Q 1044 1144 1320 825 
Q 1597 506 2072 506 
Q 3069 506 3069 1734 
Q 3069 2328 2812 2639 
Q 2556 2950 2072 2950 
Q 1588 2950 1316 2619 
Q 1044 2288 1044 1713 
z
" transform="scale(0.015625)"/>
        <path id="MicrosoftJhengHeiBold-58" d="M 3488 0 
L 2756 0 
L 2756 541 
L 2741 541 
Q 2381 -81 1678 -81 
Q 456 -81 456 1384 
L 456 3456 
L 1188 3456 
L 1188 1475 
Q 1188 506 1931 506 
Q 2294 506 2525 772 
Q 2756 1038 2756 1469 
L 2756 3456 
L 3488 3456 
L 3488 0 
z
" transform="scale(0.015625)"/>
        <path id="MicrosoftJhengHeiBold-47" d="M 3622 0 
L 2891 0 
L 2891 547 
L 2875 547 
Q 2500 -81 1731 -81 
Q 1075 -81 686 386 
Q 297 853 297 1647 
Q 297 2506 734 3022 
Q 1172 3538 1875 3538 
Q 2578 3538 2875 3006 
L 2891 3006 
L 2891 5116 
L 3622 5116 
L 3622 0 
z
M 2897 2025 
Q 2897 2419 2642 2684 
Q 2388 2950 2013 2950 
Q 1569 2950 1306 2609 
Q 1044 2269 1044 1678 
Q 1044 1134 1291 820 
Q 1538 506 1963 506 
Q 2375 506 2636 817 
Q 2897 1128 2897 1603 
L 2897 2025 
z
" transform="scale(0.015625)"/>
        <path id="MicrosoftJhengHeiBold-35" d="M 4281 0 
L 3403 0 
L 2616 1319 
Q 2384 1706 2195 1847 
Q 2006 1988 1763 1988 
L 1356 1988 
L 1356 0 
L 606 0 
L 606 4841 
L 2147 4841 
Q 2900 4841 3311 4502 
Q 3722 4163 3722 3541 
Q 3722 3053 3437 2706 
Q 3153 2359 2644 2222 
L 2644 2209 
Q 2969 2097 3372 1447 
L 4281 0 
z
M 1356 4222 
L 1356 2609 
L 2022 2609 
Q 2438 2609 2686 2850 
Q 2934 3091 2934 3463 
Q 2934 4222 2034 4222 
L 1356 4222 
z
" transform="scale(0.015625)"/>
        <path id="MicrosoftJhengHeiBold-49" d="M 2422 4516 
Q 2238 4603 2044 4603 
Q 1488 4603 1488 3931 
L 1488 3456 
L 2288 3456 
L 2288 2875 
L 1488 2875 
L 1488 0 
L 756 0 
L 756 2875 
L 169 2875 
L 169 3456 
L 756 3456 
L 756 3969 
Q 756 4534 1097 4864 
Q 1438 5194 1969 5194 
Q 2244 5194 2422 5131 
L 2422 4516 
z
" transform="scale(0.015625)"/>
        <path id="MicrosoftJhengHeiBold-55" d="M 2481 2756 
Q 2319 2863 2050 2863 
Q 1694 2863 1473 2550 
Q 1253 2238 1253 1722 
L 1253 0 
L 519 0 
L 519 3456 
L 1253 3456 
L 1253 2769 
L 1269 2769 
Q 1525 3516 2175 3516 
Q 2369 3516 2481 3472 
L 2481 2756 
z
" transform="scale(0.015625)"/>
        <path id="MicrosoftJhengHeiBold-46" d="M 2969 147 
Q 2588 -81 1991 -81 
Q 1234 -81 765 397 
Q 297 875 297 1647 
Q 297 2513 800 3025 
Q 1303 3538 2141 3538 
Q 2656 3538 2975 3372 
L 2975 2684 
Q 2606 2950 2178 2950 
Q 1672 2950 1358 2611 
Q 1044 2272 1044 1700 
Q 1044 1141 1342 823 
Q 1641 506 2144 506 
Q 2581 506 2969 788 
L 2969 147 
z
" transform="scale(0.015625)"/>
        <path id="MicrosoftJhengHeiBold-c" d="M 72 -1100 
Q 1119 175 1119 1853 
Q 1119 3528 69 4841 
L 700 4841 
Q 1766 3578 1766 1850 
Q 1766 100 697 -1100 
L 72 -1100 
z
" transform="scale(0.015625)"/>
       </defs>
       <use xlink:href="#MicrosoftJhengHeiBold-b"/>
       <use xlink:href="#MicrosoftJhengHeiBold-26" transform="translate(35.109375 0)"/>
       <use xlink:href="#MicrosoftJhengHeiBold-4f" transform="translate(102.15625 0)"/>
       <use xlink:href="#MicrosoftJhengHeiBold-52" transform="translate(129.703125 0)"/>
       <use xlink:href="#MicrosoftJhengHeiBold-58" transform="translate(193.96875 0)"/>
       <use xlink:href="#MicrosoftJhengHeiBold-47" transform="translate(256.5625 0)"/>
       <use xlink:href="#MicrosoftJhengHeiBold-3" transform="translate(321.265625 0)"/>
       <use xlink:href="#MicrosoftJhengHeiBold-35" transform="translate(346.265625 0)"/>
       <use xlink:href="#MicrosoftJhengHeiBold-48" transform="translate(409.890625 0)"/>
       <use xlink:href="#MicrosoftJhengHeiBold-49" transform="translate(467.0625 0)"/>
       <use xlink:href="#MicrosoftJhengHeiBold-48" transform="translate(503.53125 0)"/>
       <use xlink:href="#MicrosoftJhengHeiBold-55" transform="translate(560.703125 0)"/>
       <use xlink:href="#MicrosoftJhengHeiBold-48" transform="translate(598.734375 0)"/>
       <use xlink:href="#MicrosoftJhengHeiBold-51" transform="translate(655.90625 0)"/>
       <use xlink:href="#MicrosoftJhengHeiBold-46" transform="translate(718.5 0)"/>
       <use xlink:href="#MicrosoftJhengHeiBold-48" transform="translate(769.09375 0)"/>
       <use xlink:href="#MicrosoftJhengHeiBold-c" transform="translate(826.265625 0)"/>
      </g>
     </g>
    </g>
    <g id="xtick_2">
     <g id="line2d_2">
      <g>
       <use xlink:href="#m2b2114c954" x="309.52082" y="314.096992" style="stroke: #000000; stroke-width: 0.8"/>
      </g>
     </g>
     <g id="text_2">
      <!-- Qwen 3.5 9B -->
      <g transform="translate(276.503633 330.888496) scale(0.11 -0.11)">
       <defs>
        <path id="MicrosoftJhengHeiBold-34" d="M 3303 25 
L 4578 -1191 
L 3553 -1191 
L 2541 -78 
Q 1466 -53 880 625 
Q 294 1303 294 2363 
Q 294 3509 911 4212 
Q 1528 4916 2675 4916 
Q 3725 4916 4326 4242 
Q 4928 3569 4928 2472 
Q 4928 1534 4533 884 
Q 4138 234 3303 25 
z
M 2638 4263 
Q 1900 4263 1487 3753 
Q 1075 3244 1075 2413 
Q 1075 1575 1476 1075 
Q 1878 575 2594 575 
Q 3325 575 3736 1065 
Q 4147 1556 4147 2400 
Q 4147 3275 3764 3769 
Q 3381 4263 2638 4263 
z
" transform="scale(0.015625)"/>
        <path id="MicrosoftJhengHeiBold-5a" d="M 5100 3456 
L 4081 0 
L 3316 0 
L 2672 2316 
Q 2628 2469 2619 2678 
L 2603 2678 
Q 2594 2541 2534 2325 
L 1841 0 
L 1091 0 
L 69 3456 
L 828 3456 
L 1459 978 
Q 1497 825 1509 641 
L 1531 641 
Q 1544 816 1594 988 
L 2322 3456 
L 3006 3456 
L 3656 972 
Q 3678 888 3706 634 
L 3731 634 
Q 3741 791 3788 972 
L 4403 3456 
L 5100 3456 
z
" transform="scale(0.015625)"/>
        <path id="MicrosoftJhengHeiBold-1c" d="M 566 744 
Q 969 506 1444 506 
Q 2078 506 2418 987 
Q 2759 1469 2759 2338 
Q 2750 2338 2744 2341 
Q 2428 1772 1700 1772 
Q 1084 1772 692 2200 
Q 300 2628 300 3272 
Q 300 3997 745 4459 
Q 1191 4922 1906 4922 
Q 2659 4922 3073 4340 
Q 3488 3759 3488 2691 
Q 3488 1391 2966 655 
Q 2444 -81 1472 -81 
Q 950 -81 566 88 
L 566 744 
z
M 1031 3353 
Q 1031 2903 1261 2636 
Q 1491 2369 1897 2369 
Q 2250 2369 2486 2612 
Q 2722 2856 2722 3209 
Q 2722 3675 2489 4003 
Q 2256 4331 1863 4331 
Q 1497 4331 1264 4047 
Q 1031 3763 1031 3353 
z
" transform="scale(0.015625)"/>
        <path id="MicrosoftJhengHeiBold-25" d="M 606 0 
L 606 4841 
L 2119 4841 
Q 2803 4841 3198 4537 
Q 3594 4234 3594 3722 
Q 3594 3322 3353 3019 
Q 3113 2716 2719 2594 
L 2719 2581 
Q 3213 2525 3514 2209 
Q 3816 1894 3816 1409 
Q 3816 778 3364 389 
Q 2913 0 2172 0 
L 606 0 
z
M 1356 4225 
L 1356 2809 
L 1900 2809 
Q 2328 2809 2565 3015 
Q 2803 3222 2803 3581 
Q 2803 4225 1922 4225 
L 1356 4225 
z
M 1356 2191 
L 1356 616 
L 2063 616 
Q 2522 616 2775 828 
Q 3028 1041 3028 1419 
Q 3028 2191 1988 2191 
L 1356 2191 
z
" transform="scale(0.015625)"/>
       </defs>
       <use xlink:href="#MicrosoftJhengHeiBold-34"/>
       <use xlink:href="#MicrosoftJhengHeiBold-5a" transform="translate(81.59375 0)"/>
       <use xlink:href="#MicrosoftJhengHeiBold-48" transform="translate(161.921875 0)"/>
       <use xlink:href="#MicrosoftJhengHeiBold-51" transform="translate(219.09375 0)"/>
       <use xlink:href="#MicrosoftJhengHeiBold-3" transform="translate(281.6875 0)"/>
       <use xlink:href="#MicrosoftJhengHeiBold-16" transform="translate(306.6875 0)"/>
       <use xlink:href="#MicrosoftJhengHeiBold-11" transform="translate(366.265625 0)"/>
       <use xlink:href="#MicrosoftJhengHeiBold-18" transform="translate(391.703125 0)"/>
       <use xlink:href="#MicrosoftJhengHeiBold-3" transform="translate(451.28125 0)"/>
       <use xlink:href="#MicrosoftJhengHeiBold-1c" transform="translate(476.28125 0)"/>
       <use xlink:href="#MicrosoftJhengHeiBold-25" transform="translate(535.859375 0)"/>
      </g>
      <!-- (Tier 1 Matched) -->
      <g transform="translate(266.056211 342.727031) scale(0.11 -0.11)">
       <defs>
        <path id="MicrosoftJhengHeiBold-37" d="M 3656 4197 
L 2266 4197 
L 2266 0 
L 1513 0 
L 1513 4197 
L 125 4197 
L 125 4841 
L 3656 4841 
L 3656 4197 
z
" transform="scale(0.015625)"/>
        <path id="MicrosoftJhengHeiBold-14" d="M 3438 0 
L 588 0 
L 588 613 
L 1647 613 
L 1647 4109 
L 559 3816 
L 559 4459 
L 2381 4938 
L 2381 613 
L 3438 613 
L 3438 0 
z
" transform="scale(0.015625)"/>
        <path id="MicrosoftJhengHeiBold-30" d="M 5000 0 
L 5000 3125 
Q 5000 3534 5044 4097 
L 5025 4097 
Q 4931 3694 4878 3569 
L 3406 0 
L 2916 0 
L 1438 3541 
Q 1381 3675 1291 4097 
L 1272 4097 
Q 1303 3659 1303 3041 
L 1303 0 
L 606 0 
L 606 4841 
L 1653 4841 
L 2963 1644 
Q 3116 1269 3166 1022 
L 3188 1022 
Q 3247 1219 3406 1653 
L 4738 4841 
L 5744 4841 
L 5744 0 
L 5000 0 
z
" transform="scale(0.015625)"/>
        <path id="MicrosoftJhengHeiBold-57" d="M 2294 38 
Q 2091 -78 1709 -78 
Q 725 -78 725 991 
L 725 2875 
L 141 2875 
L 141 3456 
L 725 3456 
L 725 4266 
L 1456 4488 
L 1456 3456 
L 2294 3456 
L 2294 2875 
L 1456 2875 
L 1456 1119 
Q 1456 797 1570 653 
Q 1684 509 1938 509 
Q 2134 509 2294 622 
L 2294 38 
z
" transform="scale(0.015625)"/>
       </defs>
       <use xlink:href="#MicrosoftJhengHeiBold-b"/>
       <use xlink:href="#MicrosoftJhengHeiBold-37" transform="translate(35.109375 0)"/>
       <use xlink:href="#MicrosoftJhengHeiBold-4c" transform="translate(94.046875 0)"/>
       <use xlink:href="#MicrosoftJhengHeiBold-48" transform="translate(121.59375 0)"/>
       <use xlink:href="#MicrosoftJhengHeiBold-55" transform="translate(178.765625 0)"/>
       <use xlink:href="#MicrosoftJhengHeiBold-3" transform="translate(218.21875 0)"/>
       <use xlink:href="#MicrosoftJhengHeiBold-14" transform="translate(243.21875 0)"/>
       <use xlink:href="#MicrosoftJhengHeiBold-3" transform="translate(302.796875 0)"/>
       <use xlink:href="#MicrosoftJhengHeiBold-30" transform="translate(327.796875 0)"/>
       <use xlink:href="#MicrosoftJhengHeiBold-44" transform="translate(427.015625 0)"/>
       <use xlink:href="#MicrosoftJhengHeiBold-57" transform="translate(483.078125 0)"/>
       <use xlink:href="#MicrosoftJhengHeiBold-46" transform="translate(520.1875 0)"/>
       <use xlink:href="#MicrosoftJhengHeiBold-4b" transform="translate(570.78125 0)"/>
       <use xlink:href="#MicrosoftJhengHeiBold-48" transform="translate(633.28125 0)"/>
       <use xlink:href="#MicrosoftJhengHeiBold-47" transform="translate(690.453125 0)"/>
       <use xlink:href="#MicrosoftJhengHeiBold-c" transform="translate(755.15625 0)"/>
      </g>
     </g>
    </g>
    <g id="xtick_3">
     <g id="line2d_3">
      <g>
       <use xlink:href="#m2b2114c954" x="498.462698" y="314.096992" style="stroke: #000000; stroke-width: 0.8"/>
      </g>
     </g>
     <g id="text_3">
      <!-- Qwen 3.5 4B -->
      <g transform="translate(465.44551 330.888496) scale(0.11 -0.11)">
       <defs>
        <path id="MicrosoftJhengHeiBold-17" d="M 3597 1194 
L 2991 1194 
L 2991 0 
L 2294 0 
L 2294 1194 
L 78 1194 
L 78 1669 
L 2188 4841 
L 2991 4841 
L 2991 1753 
L 3597 1753 
L 3597 1194 
z
M 2294 1753 
L 2294 3647 
Q 2294 3859 2306 4134 
L 2294 4134 
Q 2216 3941 2109 3759 
L 778 1753 
L 2294 1753 
z
" transform="scale(0.015625)"/>
       </defs>
       <use xlink:href="#MicrosoftJhengHeiBold-34"/>
       <use xlink:href="#MicrosoftJhengHeiBold-5a" transform="translate(81.59375 0)"/>
       <use xlink:href="#MicrosoftJhengHeiBold-48" transform="translate(161.921875 0)"/>
       <use xlink:href="#MicrosoftJhengHeiBold-51" transform="translate(219.09375 0)"/>
       <use xlink:href="#MicrosoftJhengHeiBold-3" transform="translate(281.6875 0)"/>
       <use xlink:href="#MicrosoftJhengHeiBold-16" transform="translate(306.6875 0)"/>
       <use xlink:href="#MicrosoftJhengHeiBold-11" transform="translate(366.265625 0)"/>
       <use xlink:href="#MicrosoftJhengHeiBold-18" transform="translate(391.703125 0)"/>
       <use xlink:href="#MicrosoftJhengHeiBold-3" transform="translate(451.28125 0)"/>
       <use xlink:href="#MicrosoftJhengHeiBold-17" transform="translate(476.28125 0)"/>
       <use xlink:href="#MicrosoftJhengHeiBold-25" transform="translate(535.859375 0)"/>
      </g>
      <!-- (Tier 1 Matched) -->
      <g transform="translate(454.998088 342.727031) scale(0.11 -0.11)">
       <use xlink:href="#MicrosoftJhengHeiBold-b"/>
       <use xlink:href="#MicrosoftJhengHeiBold-37" transform="translate(35.109375 0)"/>
       <use xlink:href="#MicrosoftJhengHeiBold-4c" transform="translate(94.046875 0)"/>
       <use xlink:href="#MicrosoftJhengHeiBold-48" transform="translate(121.59375 0)"/>
       <use xlink:href="#MicrosoftJhengHeiBold-55" transform="translate(178.765625 0)"/>
       <use xlink:href="#MicrosoftJhengHeiBold-3" transform="translate(218.21875 0)"/>
       <use xlink:href="#MicrosoftJhengHeiBold-14" transform="translate(243.21875 0)"/>
       <use xlink:href="#MicrosoftJhengHeiBold-3" transform="translate(302.796875 0)"/>
       <use xlink:href="#MicrosoftJhengHeiBold-30" transform="translate(327.796875 0)"/>
       <use xlink:href="#MicrosoftJhengHeiBold-44" transform="translate(427.015625 0)"/>
       <use xlink:href="#MicrosoftJhengHeiBold-57" transform="translate(483.078125 0)"/>
       <use xlink:href="#MicrosoftJhengHeiBold-46" transform="translate(520.1875 0)"/>
       <use xlink:href="#MicrosoftJhengHeiBold-4b" transform="translate(570.78125 0)"/>
       <use xlink:href="#MicrosoftJhengHeiBold-48" transform="translate(633.28125 0)"/>
       <use xlink:href="#MicrosoftJhengHeiBold-47" transform="translate(690.453125 0)"/>
       <use xlink:href="#MicrosoftJhengHeiBold-c" transform="translate(755.15625 0)"/>
      </g>
     </g>
    </g>
   </g>
   <g id="matplotlib.axis_2">
    <g id="ytick_1">
     <g id="line2d_4">
      <path d="M 54.921641 314.096992 
L 564.12 314.096992 
" clip-path="url(#pf92dd4acf3)" style="fill: none; stroke-dasharray: 2.96,1.28; stroke-dashoffset: 0; stroke: #b0b0b0; stroke-opacity: 0.5; stroke-width: 0.8"/>
     </g>
     <g id="line2d_5">
      <defs>
       <path id="m8ee1f2d19d" d="M 0 0 
L -3.5 0 
" style="stroke: #000000; stroke-width: 0.8"/>
      </defs>
      <g>
       <use xlink:href="#m8ee1f2d19d" x="54.921641" y="314.096992" style="stroke: #000000; stroke-width: 0.8"/>
      </g>
     </g>
     <g id="text_4">
      <!-- 0 -->
      <g transform="translate(41.546797 318.992744) scale(0.11 -0.11)">
       <defs>
        <path id="MicrosoftJhengHeiRegular-13" d="M 294 2322 
Q 294 3603 711 4262 
Q 1128 4922 1916 4922 
Q 3425 4922 3425 2441 
Q 3425 1234 3011 576 
Q 2597 -81 1806 -81 
Q 1069 -81 681 550 
Q 294 1181 294 2322 
z
M 825 2350 
Q 825 363 1863 363 
Q 2891 363 2891 2378 
Q 2891 4475 1888 4475 
Q 825 4475 825 2350 
z
" transform="scale(0.015625)"/>
       </defs>
       <use xlink:href="#MicrosoftJhengHeiRegular-13"/>
      </g>
     </g>
    </g>
    <g id="ytick_2">
     <g id="line2d_6">
      <path d="M 54.921641 264.949384 
L 564.12 264.949384 
" clip-path="url(#pf92dd4acf3)" style="fill: none; stroke-dasharray: 2.96,1.28; stroke-dashoffset: 0; stroke: #b0b0b0; stroke-opacity: 0.5; stroke-width: 0.8"/>
     </g>
     <g id="line2d_7">
      <g>
       <use xlink:href="#m8ee1f2d19d" x="54.921641" y="264.949384" style="stroke: #000000; stroke-width: 0.8"/>
      </g>
     </g>
     <g id="text_5">
      <!-- 20 -->
      <g transform="translate(35.171953 269.845136) scale(0.11 -0.11)">
       <defs>
        <path id="MicrosoftJhengHeiRegular-15" d="M 3219 0 
L 322 0 
L 322 472 
L 1731 1891 
Q 2431 2597 2592 2914 
Q 2753 3231 2753 3588 
Q 2753 4016 2511 4247 
Q 2269 4478 1816 4478 
Q 1169 4478 572 3919 
L 572 4475 
Q 1131 4922 1884 4922 
Q 2509 4922 2886 4575 
Q 3263 4228 3263 3634 
Q 3263 3178 3014 2736 
Q 2766 2294 2075 1603 
L 947 488 
L 947 475 
L 3219 475 
L 3219 0 
z
" transform="scale(0.015625)"/>
       </defs>
       <use xlink:href="#MicrosoftJhengHeiRegular-15"/>
       <use xlink:href="#MicrosoftJhengHeiRegular-13" transform="translate(57.953125 0)"/>
      </g>
     </g>
    </g>
    <g id="ytick_3">
     <g id="line2d_8">
      <path d="M 54.921641 215.801776 
L 564.12 215.801776 
" clip-path="url(#pf92dd4acf3)" style="fill: none; stroke-dasharray: 2.96,1.28; stroke-dashoffset: 0; stroke: #b0b0b0; stroke-opacity: 0.5; stroke-width: 0.8"/>
     </g>
     <g id="line2d_9">
      <g>
       <use xlink:href="#m8ee1f2d19d" x="54.921641" y="215.801776" style="stroke: #000000; stroke-width: 0.8"/>
      </g>
     </g>
     <g id="text_6">
      <!-- 40 -->
      <g transform="translate(35.171953 220.697528) scale(0.11 -0.11)">
       <defs>
        <path id="MicrosoftJhengHeiRegular-17" d="M 3472 1300 
L 2847 1300 
L 2847 0 
L 2328 0 
L 2328 1300 
L 41 1300 
L 41 1644 
L 2203 4841 
L 2847 4841 
L 2847 1731 
L 3472 1731 
L 3472 1300 
z
M 2328 1731 
L 2328 3863 
Q 2328 4084 2341 4366 
L 2328 4366 
Q 2303 4297 2144 3994 
L 622 1731 
L 2328 1731 
z
" transform="scale(0.015625)"/>
       </defs>
       <use xlink:href="#MicrosoftJhengHeiRegular-17"/>
       <use xlink:href="#MicrosoftJhengHeiRegular-13" transform="translate(57.953125 0)"/>
      </g>
     </g>
    </g>
    <g id="ytick_4">
     <g id="line2d_10">
      <path d="M 54.921641 166.654169 
L 564.12 166.654169 
" clip-path="url(#pf92dd4acf3)" style="fill: none; stroke-dasharray: 2.96,1.28; stroke-dashoffset: 0; stroke: #b0b0b0; stroke-opacity: 0.5; stroke-width: 0.8"/>
     </g>
     <g id="line2d_11">
      <g>
       <use xlink:href="#m8ee1f2d19d" x="54.921641" y="166.654169" style="stroke: #000000; stroke-width: 0.8"/>
      </g>
     </g>
     <g id="text_7">
      <!-- 60 -->
      <g transform="translate(35.171953 171.54992) scale(0.11 -0.11)">
       <defs>
        <path id="MicrosoftJhengHeiRegular-19" d="M 3138 4284 
Q 2756 4475 2347 4475 
Q 1681 4475 1297 3892 
Q 913 3309 916 2328 
L 931 2328 
Q 1266 3022 2041 3022 
Q 2675 3022 3053 2609 
Q 3431 2197 3431 1525 
Q 3431 834 3006 376 
Q 2581 -81 1922 -81 
Q 1166 -81 770 509 
Q 375 1100 375 2125 
Q 375 3353 890 4137 
Q 1406 4922 2338 4922 
Q 2844 4922 3138 4781 
L 3138 4284 
z
M 953 1584 
Q 953 1072 1226 717 
Q 1500 363 1941 363 
Q 2369 363 2631 675 
Q 2894 988 2894 1459 
Q 2894 1988 2637 2281 
Q 2381 2575 1934 2575 
Q 1525 2575 1239 2287 
Q 953 2000 953 1584 
z
" transform="scale(0.015625)"/>
       </defs>
       <use xlink:href="#MicrosoftJhengHeiRegular-19"/>
       <use xlink:href="#MicrosoftJhengHeiRegular-13" transform="translate(57.953125 0)"/>
      </g>
     </g>
    </g>
    <g id="ytick_5">
     <g id="line2d_12">
      <path d="M 54.921641 117.506561 
L 564.12 117.506561 
" clip-path="url(#pf92dd4acf3)" style="fill: none; stroke-dasharray: 2.96,1.28; stroke-dashoffset: 0; stroke: #b0b0b0; stroke-opacity: 0.5; stroke-width: 0.8"/>
     </g>
     <g id="line2d_13">
      <g>
       <use xlink:href="#m8ee1f2d19d" x="54.921641" y="117.506561" style="stroke: #000000; stroke-width: 0.8"/>
      </g>
     </g>
     <g id="text_8">
      <!-- 80 -->
      <g transform="translate(35.171953 122.402313) scale(0.11 -0.11)">
       <defs>
        <path id="MicrosoftJhengHeiRegular-1b" d="M 1394 2550 
Q 519 2963 519 3731 
Q 519 4263 925 4592 
Q 1331 4922 1931 4922 
Q 2469 4922 2841 4614 
Q 3213 4306 3213 3806 
Q 3213 3000 2313 2550 
L 2313 2538 
Q 3372 2138 3372 1225 
Q 3372 606 2931 262 
Q 2491 -81 1753 -81 
Q 1150 -81 745 267 
Q 341 616 341 1178 
Q 341 2109 1394 2538 
L 1394 2550 
z
M 2672 3738 
Q 2672 4081 2455 4276 
Q 2238 4472 1878 4472 
Q 1547 4472 1303 4267 
Q 1059 4063 1059 3750 
Q 1059 3106 1856 2778 
Q 2672 3122 2672 3738 
z
M 1819 2284 
Q 878 1909 878 1203 
Q 878 813 1159 589 
Q 1441 366 1875 366 
Q 2294 366 2566 589 
Q 2838 813 2838 1181 
Q 2838 1919 1819 2284 
z
" transform="scale(0.015625)"/>
       </defs>
       <use xlink:href="#MicrosoftJhengHeiRegular-1b"/>
       <use xlink:href="#MicrosoftJhengHeiRegular-13" transform="translate(57.953125 0)"/>
      </g>
     </g>
    </g>
    <g id="ytick_6">
     <g id="line2d_14">
      <path d="M 54.921641 68.358953 
L 564.12 68.358953 
" clip-path="url(#pf92dd4acf3)" style="fill: none; stroke-dasharray: 2.96,1.28; stroke-dashoffset: 0; stroke: #b0b0b0; stroke-opacity: 0.5; stroke-width: 0.8"/>
     </g>
     <g id="line2d_15">
      <g>
       <use xlink:href="#m8ee1f2d19d" x="54.921641" y="68.358953" style="stroke: #000000; stroke-width: 0.8"/>
      </g>
     </g>
     <g id="text_9">
      <!-- 100 -->
      <g transform="translate(28.797109 73.254705) scale(0.11 -0.11)">
       <defs>
        <path id="MicrosoftJhengHeiRegular-14" d="M 3313 0 
L 594 0 
L 594 466 
L 1694 466 
L 1694 4272 
L 566 3931 
L 566 4434 
L 2216 4950 
L 2216 466 
L 3313 466 
L 3313 0 
z
" transform="scale(0.015625)"/>
       </defs>
       <use xlink:href="#MicrosoftJhengHeiRegular-14"/>
       <use xlink:href="#MicrosoftJhengHeiRegular-13" transform="translate(57.953125 0)"/>
       <use xlink:href="#MicrosoftJhengHeiRegular-13" transform="translate(115.90625 0)"/>
      </g>
     </g>
    </g>
    <g id="text_10">
     <!-- 端到端通過率 (%) -->
     <g transform="translate(22.734609 232.211709) rotate(-90) scale(0.12 -0.12)">
      <defs>
       <path id="MicrosoftJhengHeiBold-49ad" d="M 2534 441 
Q 1613 84 603 -206 
L 447 313 
Q 622 356 928 469 
Q 853 1797 581 3597 
L 959 3878 
L 488 3878 
L 488 4428 
L 1253 4428 
Q 1144 4825 997 5159 
L 1563 5319 
Q 1716 4953 1850 4428 
L 2491 4428 
L 2491 3878 
L 1919 3878 
L 2375 3628 
Q 2316 2416 2156 891 
Q 2322 931 2478 997 
L 2534 441 
z
M 1844 3878 
L 1081 3878 
Q 1313 2266 1441 641 
Q 1509 656 1600 691 
Q 1788 2425 1844 3878 
z
M 5722 3669 
L 2791 3669 
L 2791 5044 
L 3316 5044 
L 3316 4191 
L 3975 4191 
L 3975 5269 
L 4506 5269 
L 4506 4191 
L 5191 4191 
L 5191 5044 
L 5722 5044 
L 5722 3669 
z
M 6016 2747 
L 4519 2747 
Q 4431 2478 4325 2253 
L 5784 2253 
L 5784 178 
Q 5784 -309 5281 -309 
Q 5203 -309 5063 -300 
L 4966 238 
Q 5059 225 5147 225 
Q 5253 225 5253 325 
L 5253 1716 
L 4897 1716 
L 4897 -97 
L 4422 -97 
L 4422 1716 
L 4091 1716 
L 4091 -97 
L 3622 -97 
L 3622 1716 
L 3256 1716 
L 3256 -341 
L 2725 -341 
L 2725 2253 
L 3694 2253 
Q 3825 2516 3903 2747 
L 2503 2747 
L 2503 3284 
L 6016 3284 
L 6016 2747 
z
" transform="scale(0.015625)"/>
       <path id="MicrosoftJhengHeiBold-20ee" d="M 5863 178 
Q 5863 -28 5731 -172 
Q 5600 -316 5425 -328 
Q 5250 -341 4953 -341 
Q 4769 -341 4459 -331 
L 4294 244 
Q 4628 222 4881 222 
Q 5175 222 5231 245 
Q 5288 269 5288 331 
L 5288 5259 
L 5863 5259 
L 5863 178 
z
M 3950 2875 
L 3481 2578 
Q 3266 3000 3213 3078 
Q 2875 3022 2509 2969 
L 2509 2125 
L 3659 2125 
L 3659 1569 
L 2509 1569 
L 2509 594 
Q 3038 656 3788 872 
L 3788 325 
Q 2722 28 550 -263 
L 391 281 
Q 1091 341 1931 481 
L 1931 1569 
L 653 1569 
L 653 2125 
L 1931 2125 
L 1931 2875 
Q 1138 2772 691 2731 
L 531 3263 
Q 1206 3709 1631 4550 
L 488 4550 
L 488 5106 
L 3816 5106 
L 3816 4550 
L 2309 4550 
Q 1928 3875 1369 3353 
Q 2084 3416 2900 3553 
Q 2772 3775 2472 4128 
L 2963 4403 
Q 3663 3584 3950 2875 
z
M 4672 831 
L 4109 831 
L 4109 4813 
L 4672 4813 
L 4672 831 
z
" transform="scale(0.015625)"/>
       <path id="MicrosoftJhengHeiBold-5ed8" d="M 1984 4481 
L 1581 4109 
Q 1078 4619 588 4928 
L 966 5325 
Q 1603 4903 1984 4481 
z
M 5844 1113 
Q 5844 850 5655 717 
Q 5466 584 4903 609 
L 4738 1131 
Q 4894 1125 5031 1125 
Q 5288 1125 5288 1269 
L 5288 1544 
L 4409 1544 
L 4409 628 
L 3859 628 
L 3859 1544 
L 2981 1544 
L 2981 616 
L 2431 616 
L 2431 3897 
L 3688 3897 
Q 3359 4063 2875 4231 
L 3303 4556 
Q 3706 4413 3994 4275 
Q 4381 4453 4722 4653 
L 2344 4653 
L 2344 5172 
L 5709 5172 
L 5709 4653 
Q 5072 4247 4544 3963 
L 4628 3897 
L 5844 3897 
L 5844 1113 
z
M 5288 2944 
L 5288 3419 
L 4409 3419 
L 4409 2944 
L 5288 2944 
z
M 3859 2944 
L 3859 3419 
L 2981 3419 
L 2981 2944 
L 3859 2944 
z
M 5288 2016 
L 5288 2478 
L 4409 2478 
L 4409 2016 
L 5288 2016 
z
M 3859 2016 
L 3859 2478 
L 2981 2478 
L 2981 2016 
L 3859 2016 
z
M 6034 325 
L 5888 -231 
Q 5334 -244 4850 -244 
Q 3041 -244 2470 -119 
Q 1900 6 1478 416 
Q 1169 -34 850 -378 
L 403 -31 
Q 1256 822 1466 1791 
L 556 1791 
L 556 2338 
Q 1088 2972 1369 3391 
L 434 3391 
L 434 3938 
L 2053 3938 
L 2053 3391 
Q 1750 2919 1294 2338 
L 2069 2338 
L 2069 1791 
Q 1956 1313 1734 891 
Q 1966 628 2337 478 
Q 2709 328 3271 312 
Q 3834 297 4450 297 
Q 5344 297 6034 325 
z
" transform="scale(0.015625)"/>
       <path id="MicrosoftJhengHeiBold-5f0c" d="M 1978 4506 
L 1575 4109 
Q 1103 4619 544 4928 
L 972 5325 
Q 1472 5022 1978 4506 
z
M 5856 947 
Q 5856 794 5725 625 
Q 5594 456 4972 456 
Q 4863 456 4756 459 
L 4575 972 
L 5178 978 
Q 5325 978 5325 1125 
L 5325 2841 
L 2875 2841 
L 2875 469 
L 2328 469 
L 2328 3322 
L 2663 3322 
L 2663 5153 
L 5491 5153 
L 5491 3322 
L 5856 3322 
L 5856 947 
z
M 4947 4244 
L 4947 4653 
L 3213 4653 
L 3213 3322 
L 3763 3322 
L 3763 4244 
L 4947 4244 
z
M 4947 3322 
L 4947 3781 
L 4313 3781 
L 4313 3322 
L 4947 3322 
z
M 6047 275 
L 5869 -256 
Q 5128 -275 4481 -275 
Q 3000 -275 2414 -148 
Q 1828 -22 1388 341 
Q 1081 -116 831 -391 
L 384 -38 
Q 1241 894 1441 1791 
L 481 1791 
L 481 2322 
Q 994 2856 1338 3425 
L 416 3425 
L 416 3944 
L 1991 3944 
L 1991 3438 
Q 1731 2938 1209 2316 
L 2003 2316 
L 2003 1791 
Q 1878 1216 1644 775 
Q 1944 538 2323 419 
Q 2703 300 3029 275 
Q 3356 250 4391 250 
Q 5191 250 6047 275 
z
M 4959 1166 
L 3219 1166 
L 3219 2534 
L 4959 2534 
L 4959 1166 
z
M 4441 1619 
L 4441 2088 
L 3731 2088 
L 3731 1619 
L 4441 1619 
z
" transform="scale(0.015625)"/>
       <path id="MicrosoftJhengHeiBold-4245" d="M 5869 4294 
L 3116 4294 
L 3481 4122 
Q 3113 3675 2759 3397 
Q 3084 3416 3475 3469 
L 3903 3988 
L 4391 3744 
Q 3600 2819 2847 2338 
Q 3259 2372 3834 2472 
Q 3756 2641 3647 2797 
L 4116 3009 
Q 4500 2400 4678 1947 
L 4178 1741 
Q 4138 1931 4056 2059 
Q 3003 1884 2113 1825 
L 2009 2272 
Q 2588 2588 2981 2981 
Q 2581 2941 2069 2919 
L 1991 3322 
Q 2541 3716 2938 4294 
L 569 4294 
L 569 4794 
L 2938 4794 
Q 2866 5016 2759 5209 
L 3359 5288 
Q 3522 4984 3572 4794 
L 5869 4794 
L 5869 4294 
z
M 5784 3803 
Q 5347 3400 4831 3066 
L 4453 3469 
Q 4931 3772 5369 4159 
L 5784 3803 
z
M 1913 3475 
L 1528 3078 
Q 1203 3378 647 3769 
L 1050 4147 
Q 1531 3841 1913 3475 
z
M 2047 2484 
Q 1300 1938 722 1638 
L 469 2138 
Q 1063 2422 1813 2975 
L 2047 2484 
z
M 5978 2059 
L 5569 1678 
Q 5016 2209 4475 2584 
L 4856 2969 
Q 5513 2528 5978 2059 
z
M 6003 819 
L 3519 819 
L 3519 -331 
L 2938 -331 
L 2938 819 
L 422 819 
L 422 1331 
L 2938 1331 
L 2938 1784 
L 3519 1784 
L 3519 1331 
L 6003 1331 
L 6003 819 
z
" transform="scale(0.015625)"/>
       <path id="MicrosoftJhengHeiBold-8" d="M 281 3613 
Q 281 4216 604 4562 
Q 928 4909 1466 4909 
Q 1994 4909 2283 4584 
Q 2572 4259 2572 3691 
Q 2572 3113 2248 2758 
Q 1925 2403 1391 2403 
Q 888 2403 584 2734 
Q 281 3066 281 3613 
z
M 825 3644 
Q 825 3263 984 3059 
Q 1144 2856 1428 2856 
Q 2034 2856 2034 3672 
Q 2034 4463 1447 4463 
Q 1150 4463 987 4248 
Q 825 4034 825 3644 
z
M 4734 4841 
L 1616 -22 
L 1013 -22 
L 4131 4841 
L 4734 4841 
z
M 3209 1138 
Q 3209 1734 3534 2087 
Q 3859 2441 4394 2441 
Q 4922 2441 5211 2114 
Q 5500 1788 5500 1213 
Q 5500 638 5175 283 
Q 4850 -72 4322 -72 
Q 3813 -72 3511 265 
Q 3209 603 3209 1138 
z
M 3750 1166 
Q 3750 788 3911 584 
Q 4072 381 4356 381 
Q 4963 381 4963 1197 
Q 4963 1575 4805 1779 
Q 4647 1984 4372 1984 
Q 3750 1984 3750 1166 
z
" transform="scale(0.015625)"/>
      </defs>
      <use xlink:href="#MicrosoftJhengHeiBold-49ad"/>
      <use xlink:href="#MicrosoftJhengHeiBold-20ee" transform="translate(100 0)"/>
      <use xlink:href="#MicrosoftJhengHeiBold-49ad" transform="translate(200 0)"/>
      <use xlink:href="#MicrosoftJhengHeiBold-5ed8" transform="translate(300 0)"/>
      <use xlink:href="#MicrosoftJhengHeiBold-5f0c" transform="translate(400 0)"/>
      <use xlink:href="#MicrosoftJhengHeiBold-4245" transform="translate(500 0)"/>
      <use xlink:href="#MicrosoftJhengHeiBold-3" transform="translate(600 0)"/>
      <use xlink:href="#MicrosoftJhengHeiBold-b" transform="translate(625 0)"/>
      <use xlink:href="#MicrosoftJhengHeiBold-8" transform="translate(660.109375 0)"/>
      <use xlink:href="#MicrosoftJhengHeiBold-c" transform="translate(750.34375 0)"/>
     </g>
    </g>
   </g>
   <g id="patch_3">
    <path d="M 54.921641 314.096992 
L 54.921641 56.072051 
" style="fill: none; stroke: #000000; stroke-width: 0.8; stroke-linejoin: miter; stroke-linecap: square"/>
   </g>
   <g id="patch_4">
    <path d="M 564.12 314.096992 
L 564.12 56.072051 
" style="fill: none; stroke: #000000; stroke-width: 0.8; stroke-linejoin: miter; stroke-linecap: square"/>
   </g>
   <g id="patch_5">
    <path d="M 54.921641 314.096992 
L 564.12 314.096992 
" style="fill: none; stroke: #000000; stroke-width: 0.8; stroke-linejoin: miter; stroke-linecap: square"/>
   </g>
   <g id="patch_6">
    <path d="M 54.921641 56.072051 
L 564.12 56.072051 
" style="fill: none; stroke: #000000; stroke-width: 0.8; stroke-linejoin: miter; stroke-linecap: square"/>
   </g>
   <g id="patch_7">
    <path d="M 78.067021 314.096992 
L 163.090865 314.096992 
L 163.090865 92.164825 
L 78.067021 92.164825 
z
" clip-path="url(#pf92dd4acf3)" style="fill: #4285f4; stroke: #1f2937; stroke-linejoin: miter"/>
   </g>
   <g id="patch_8">
    <path d="M 267.008898 314.096992 
L 352.032743 314.096992 
L 352.032743 236.535923 
L 267.008898 236.535923 
z
" clip-path="url(#pf92dd4acf3)" style="fill: #d97706; stroke: #1f2937; stroke-linejoin: miter"/>
   </g>
   <g id="patch_9">
    <path d="M 455.950775 314.096992 
L 540.97462 314.096992 
L 540.97462 253.430414 
L 455.950775 253.430414 
z
" clip-path="url(#pf92dd4acf3)" style="fill: #0f9d58; stroke: #1f2937; stroke-linejoin: miter"/>
   </g>
   <g id="text_11">
    <!-- 289/320 -->
    <g style="fill: #1f2937" transform="translate(98.490427 72.959089) scale(0.11 -0.11)">
     <defs>
      <path id="MicrosoftJhengHeiBold-15" d="M 3350 0 
L 341 0 
L 341 613 
L 1744 1994 
Q 2213 2453 2436 2787 
Q 2659 3122 2659 3516 
Q 2659 4319 1809 4319 
Q 1172 4319 584 3784 
L 584 4491 
Q 1175 4922 1941 4922 
Q 2606 4922 3001 4567 
Q 3397 4213 3397 3597 
Q 3397 3153 3147 2714 
Q 2897 2275 2275 1675 
L 1200 650 
L 1200 634 
L 3350 634 
L 3350 0 
z
" transform="scale(0.015625)"/>
      <path id="MicrosoftJhengHeiBold-1b" d="M 1338 2544 
Q 478 2928 478 3694 
Q 478 4247 906 4584 
Q 1334 4922 1966 4922 
Q 2556 4922 2957 4606 
Q 3359 4291 3359 3766 
Q 3359 2966 2453 2547 
L 2453 2534 
Q 3503 2159 3503 1253 
Q 3503 616 3043 267 
Q 2584 -81 1816 -81 
Q 1166 -81 741 269 
Q 316 619 316 1200 
Q 316 2109 1338 2531 
L 1338 2544 
z
M 2638 3691 
Q 2638 3994 2445 4170 
Q 2253 4347 1931 4347 
Q 1625 4347 1414 4159 
Q 1203 3972 1203 3694 
Q 1203 3125 1916 2834 
Q 2638 3134 2638 3691 
z
M 1875 2216 
Q 1034 1881 1034 1238 
Q 1034 900 1284 695 
Q 1534 491 1922 491 
Q 2300 491 2542 691 
Q 2784 891 2784 1228 
Q 2784 1894 1875 2216 
z
" transform="scale(0.015625)"/>
      <path id="MicrosoftJhengHeiBold-12" d="M 2884 4841 
L 550 -803 
L -119 -803 
L 2209 4841 
L 2884 4841 
z
" transform="scale(0.015625)"/>
      <path id="MicrosoftJhengHeiBold-13" d="M 272 2328 
Q 272 3603 708 4262 
Q 1144 4922 1972 4922 
Q 3550 4922 3550 2444 
Q 3550 1231 3119 575 
Q 2688 -81 1869 -81 
Q 1078 -81 675 537 
Q 272 1156 272 2328 
z
M 1019 2356 
Q 1019 506 1916 506 
Q 2800 506 2800 2394 
Q 2800 4331 1934 4331 
Q 1019 4331 1019 2356 
z
" transform="scale(0.015625)"/>
     </defs>
     <use xlink:href="#MicrosoftJhengHeiBold-15"/>
     <use xlink:href="#MicrosoftJhengHeiBold-1b" transform="translate(59.578125 0)"/>
     <use xlink:href="#MicrosoftJhengHeiBold-1c" transform="translate(119.15625 0)"/>
     <use xlink:href="#MicrosoftJhengHeiBold-12" transform="translate(178.734375 0)"/>
     <use xlink:href="#MicrosoftJhengHeiBold-16" transform="translate(222.875 0)"/>
     <use xlink:href="#MicrosoftJhengHeiBold-15" transform="translate(282.453125 0)"/>
     <use xlink:href="#MicrosoftJhengHeiBold-13" transform="translate(342.03125 0)"/>
    </g>
    <!-- (90.3%) -->
    <g style="fill: #1f2937" transform="translate(100.524568 84.130749) scale(0.11 -0.11)">
     <use xlink:href="#MicrosoftJhengHeiBold-b"/>
     <use xlink:href="#MicrosoftJhengHeiBold-1c" transform="translate(35.109375 0)"/>
     <use xlink:href="#MicrosoftJhengHeiBold-13" transform="translate(94.6875 0)"/>
     <use xlink:href="#MicrosoftJhengHeiBold-11" transform="translate(154.265625 0)"/>
     <use xlink:href="#MicrosoftJhengHeiBold-16" transform="translate(179.703125 0)"/>
     <use xlink:href="#MicrosoftJhengHeiBold-8" transform="translate(239.28125 0)"/>
     <use xlink:href="#MicrosoftJhengHeiBold-c" transform="translate(329.515625 0)"/>
    </g>
   </g>
   <g id="text_12">
    <!-- 101/320 -->
    <g style="fill: #1f2937" transform="translate(287.432305 217.330187) scale(0.11 -0.11)">
     <use xlink:href="#MicrosoftJhengHeiBold-14"/>
     <use xlink:href="#MicrosoftJhengHeiBold-13" transform="translate(59.578125 0)"/>
     <use xlink:href="#MicrosoftJhengHeiBold-14" transform="translate(119.15625 0)"/>
     <use xlink:href="#MicrosoftJhengHeiBold-12" transform="translate(178.734375 0)"/>
     <use xlink:href="#MicrosoftJhengHeiBold-16" transform="translate(222.875 0)"/>
     <use xlink:href="#MicrosoftJhengHeiBold-15" transform="translate(282.453125 0)"/>
     <use xlink:href="#MicrosoftJhengHeiBold-13" transform="translate(342.03125 0)"/>
    </g>
    <!-- (31.6%) -->
    <g style="fill: #1f2937" transform="translate(289.466445 228.501848) scale(0.11 -0.11)">
     <defs>
      <path id="MicrosoftJhengHeiBold-19" d="M 3241 4131 
Q 2872 4331 2447 4331 
Q 1822 4331 1461 3801 
Q 1100 3272 1103 2434 
L 1119 2434 
Q 1459 3056 2194 3056 
Q 2819 3056 3187 2642 
Q 3556 2228 3556 1559 
Q 3556 853 3114 386 
Q 2672 -81 1981 -81 
Q 1197 -81 778 511 
Q 359 1103 359 2141 
Q 359 3369 903 4145 
Q 1447 4922 2416 4922 
Q 2938 4922 3241 4784 
L 3241 4131 
z
M 1138 1588 
Q 1138 1134 1375 820 
Q 1613 506 1994 506 
Q 2372 506 2595 790 
Q 2819 1075 2819 1494 
Q 2819 1966 2606 2220 
Q 2394 2475 1988 2475 
Q 1625 2475 1381 2219 
Q 1138 1963 1138 1588 
z
" transform="scale(0.015625)"/>
     </defs>
     <use xlink:href="#MicrosoftJhengHeiBold-b"/>
     <use xlink:href="#MicrosoftJhengHeiBold-16" transform="translate(35.109375 0)"/>
     <use xlink:href="#MicrosoftJhengHeiBold-14" transform="translate(94.6875 0)"/>
     <use xlink:href="#MicrosoftJhengHeiBold-11" transform="translate(154.265625 0)"/>
     <use xlink:href="#MicrosoftJhengHeiBold-19" transform="translate(179.703125 0)"/>
     <use xlink:href="#MicrosoftJhengHeiBold-8" transform="translate(239.28125 0)"/>
     <use xlink:href="#MicrosoftJhengHeiBold-c" transform="translate(329.515625 0)"/>
    </g>
   </g>
   <g id="text_13">
    <!-- 79/320 -->
    <g style="fill: #1f2937" transform="translate(479.650979 234.224678) scale(0.11 -0.11)">
     <defs>
      <path id="MicrosoftJhengHeiBold-1a" d="M 3509 4553 
L 1663 0 
L 897 0 
L 2678 4209 
L 303 4209 
L 303 4841 
L 3509 4841 
L 3509 4553 
z
" transform="scale(0.015625)"/>
     </defs>
     <use xlink:href="#MicrosoftJhengHeiBold-1a"/>
     <use xlink:href="#MicrosoftJhengHeiBold-1c" transform="translate(59.578125 0)"/>
     <use xlink:href="#MicrosoftJhengHeiBold-12" transform="translate(119.15625 0)"/>
     <use xlink:href="#MicrosoftJhengHeiBold-16" transform="translate(163.296875 0)"/>
     <use xlink:href="#MicrosoftJhengHeiBold-15" transform="translate(222.875 0)"/>
     <use xlink:href="#MicrosoftJhengHeiBold-13" transform="translate(282.453125 0)"/>
    </g>
    <!-- (24.7%) -->
    <g style="fill: #1f2937" transform="translate(478.408323 245.396338) scale(0.11 -0.11)">
     <use xlink:href="#MicrosoftJhengHeiBold-b"/>
     <use xlink:href="#MicrosoftJhengHeiBold-15" transform="translate(35.109375 0)"/>
     <use xlink:href="#MicrosoftJhengHeiBold-17" transform="translate(94.6875 0)"/>
     <use xlink:href="#MicrosoftJhengHeiBold-11" transform="translate(154.265625 0)"/>
     <use xlink:href="#MicrosoftJhengHeiBold-1a" transform="translate(179.703125 0)"/>
     <use xlink:href="#MicrosoftJhengHeiBold-8" transform="translate(239.28125 0)"/>
     <use xlink:href="#MicrosoftJhengHeiBold-c" transform="translate(329.515625 0)"/>
    </g>
   </g>
   <g id="text_14">
    <!-- 三模型 Baseline 端到端通過率 -->
    <g transform="translate(208.288398 41.072051) scale(0.15 -0.15)">
     <defs>
      <path id="MicrosoftJhengHeiBold-1cc7" d="M 5741 4525 
L 744 4525 
L 744 5113 
L 5741 5113 
L 5741 4525 
z
M 5441 2272 
L 1013 2272 
L 1013 2853 
L 5441 2853 
L 5441 2272 
z
M 6009 -159 
L 434 -159 
L 434 422 
L 6009 422 
L 6009 -159 
z
" transform="scale(0.015625)"/>
      <path id="MicrosoftJhengHeiBold-38df" d="M 5947 4366 
L 5247 4366 
L 5247 4063 
L 4684 4063 
L 4684 4366 
L 4300 4366 
L 4300 4863 
L 4684 4863 
L 4684 5259 
L 5247 5259 
L 5247 4863 
L 5947 4863 
L 5947 4366 
z
M 4056 4366 
L 3688 4366 
L 3688 4063 
L 3122 4063 
L 3122 4366 
L 2338 4366 
L 2338 4863 
L 3122 4863 
L 3122 5259 
L 3688 5259 
L 3688 4863 
L 4056 4863 
L 4056 4366 
z
M 2553 2534 
L 2169 2119 
Q 1913 2556 1709 2816 
L 1709 -325 
L 1159 -325 
L 1159 2406 
Q 903 1750 653 1300 
L 353 1894 
Q 950 2859 1131 3647 
L 441 3647 
L 441 4197 
L 1159 4197 
L 1159 5253 
L 1709 5253 
L 1709 4197 
L 2291 4197 
L 2291 3647 
L 1709 3647 
L 1709 3553 
Q 2288 2941 2553 2534 
z
M 6016 953 
L 4244 953 
Q 3872 -50 2388 -403 
L 2119 97 
Q 3203 284 3628 953 
L 2209 953 
L 2209 1453 
L 3756 1453 
Q 3791 1631 3803 1813 
L 2706 1813 
L 2706 3872 
L 5588 3872 
L 5588 1813 
L 4378 1813 
Q 4378 1688 4347 1453 
L 6016 1453 
L 6016 953 
z
M 5031 3078 
L 5031 3378 
L 3256 3378 
L 3256 3078 
L 5031 3078 
z
M 5031 2297 
L 5031 2625 
L 3256 2625 
L 3256 2297 
L 5031 2297 
z
M 6088 122 
L 5778 -353 
Q 5094 34 4250 313 
L 4525 794 
Q 5388 506 6088 122 
z
" transform="scale(0.015625)"/>
      <path id="MicrosoftJhengHeiBold-2649" d="M 5819 2356 
Q 5819 2119 5650 1972 
Q 5481 1825 5197 1825 
L 4378 1825 
L 4213 2350 
Q 4431 2334 4666 2334 
Q 5134 2334 5204 2376 
Q 5275 2419 5275 2528 
L 5275 5228 
L 5819 5228 
L 5819 2356 
z
M 3853 3309 
L 3097 3309 
L 3097 2022 
L 2547 2022 
L 2547 3309 
L 1844 3309 
Q 1756 2441 1019 1778 
L 628 2175 
Q 1222 2700 1306 3309 
L 506 3309 
L 506 3809 
L 1350 3809 
L 1350 4641 
L 603 4641 
L 603 5159 
L 3769 5159 
L 3769 4641 
L 3097 4641 
L 3097 3809 
L 3853 3809 
L 3853 3309 
z
M 2547 3809 
L 2547 4641 
L 1894 4641 
L 1894 3809 
L 2547 3809 
z
M 4672 2791 
L 4116 2791 
L 4116 4953 
L 4672 4953 
L 4672 2791 
z
M 6022 -191 
L 453 -191 
L 453 313 
L 2944 313 
L 2944 916 
L 844 916 
L 844 1428 
L 2944 1428 
L 2944 1869 
L 3525 1869 
L 3525 1428 
L 5644 1428 
L 5644 916 
L 3525 916 
L 3525 313 
L 6022 313 
L 6022 -191 
z
" transform="scale(0.015625)"/>
     </defs>
     <use xlink:href="#MicrosoftJhengHeiBold-1cc7"/>
     <use xlink:href="#MicrosoftJhengHeiBold-38df" transform="translate(100 0)"/>
     <use xlink:href="#MicrosoftJhengHeiBold-2649" transform="translate(200 0)"/>
     <use xlink:href="#MicrosoftJhengHeiBold-3" transform="translate(300 0)"/>
     <use xlink:href="#MicrosoftJhengHeiBold-25" transform="translate(325 0)"/>
     <use xlink:href="#MicrosoftJhengHeiBold-44" transform="translate(389.453125 0)"/>
     <use xlink:href="#MicrosoftJhengHeiBold-56" transform="translate(445.515625 0)"/>
     <use xlink:href="#MicrosoftJhengHeiBold-48" transform="translate(492.734375 0)"/>
     <use xlink:href="#MicrosoftJhengHeiBold-4f" transform="translate(549.90625 0)"/>
     <use xlink:href="#MicrosoftJhengHeiBold-4c" transform="translate(577.453125 0)"/>
     <use xlink:href="#MicrosoftJhengHeiBold-51" transform="translate(605 0)"/>
     <use xlink:href="#MicrosoftJhengHeiBold-48" transform="translate(667.59375 0)"/>
     <use xlink:href="#MicrosoftJhengHeiBold-3" transform="translate(724.765625 0)"/>
     <use xlink:href="#MicrosoftJhengHeiBold-49ad" transform="translate(749.765625 0)"/>
     <use xlink:href="#MicrosoftJhengHeiBold-20ee" transform="translate(849.765625 0)"/>
     <use xlink:href="#MicrosoftJhengHeiBold-49ad" transform="translate(949.765625 0)"/>
     <use xlink:href="#MicrosoftJhengHeiBold-5ed8" transform="translate(1049.765625 0)"/>
     <use xlink:href="#MicrosoftJhengHeiBold-5f0c" transform="translate(1149.765625 0)"/>
     <use xlink:href="#MicrosoftJhengHeiBold-4245" transform="translate(1249.765625 0)"/>
    </g>
   </g>
  </g>
  <g id="text_15">
   <!-- 註：Gemini為Tier 2描述性參照；9B與4B為Tier 1配對比較。呈現順序 Gemini→9B→4B。Baseline不代表Healer可修復窗口。Qwen 4B Baseline presentation = 79/320。 -->
   <g style="fill: #4b5563" transform="translate(-34.669961 388.872) scale(0.085 -0.085)">
    <defs>
     <path id="MicrosoftJhengHeiRegular-5a22" d="M 2741 4275 
L 441 4275 
L 441 4616 
L 1428 4616 
Q 1350 4853 1147 5178 
L 1491 5294 
Q 1688 4941 1813 4616 
L 2741 4616 
L 2741 4275 
z
M 6003 -178 
L 2797 -178 
L 2797 141 
L 4244 141 
L 4244 2028 
L 3041 2028 
L 3041 2363 
L 4244 2363 
L 4244 3916 
L 3003 3916 
L 3003 4250 
L 4256 4250 
Q 4134 4697 3903 5141 
L 4213 5253 
Q 4466 4747 4581 4250 
L 5978 4250 
L 5978 3916 
L 4581 3916 
L 4581 2363 
L 5844 2363 
L 5844 2028 
L 4581 2028 
L 4581 141 
L 6003 141 
L 6003 -178 
z
M 2516 3384 
L 659 3384 
L 659 3713 
L 2516 3713 
L 2516 3384 
z
M 2516 2431 
L 659 2431 
L 659 2753 
L 2516 2753 
L 2516 2431 
z
M 2456 -269 
L 2131 -269 
L 2131 128 
L 1025 128 
L 1025 -306 
L 691 -306 
L 691 1813 
L 2456 1813 
L 2456 -269 
z
M 2131 453 
L 2131 1472 
L 1025 1472 
L 1025 453 
L 2131 453 
z
" transform="scale(0.015625)"/>
     <path id="MicrosoftJhengHeiRegular-19d" d="M 3206 3531 
Q 3363 3531 3467 3425 
Q 3572 3319 3572 3169 
Q 3572 3019 3467 2914 
Q 3363 2809 3206 2809 
Q 3056 2809 2948 2912 
Q 2841 3016 2841 3169 
Q 2841 3322 2948 3426 
Q 3056 3531 3206 3531 
z
M 3206 653 
Q 3363 653 3467 548 
Q 3572 444 3572 288 
Q 3572 138 3469 30 
Q 3366 -78 3206 -78 
Q 3053 -78 2947 28 
Q 2841 134 2841 288 
Q 2841 447 2948 550 
Q 3056 653 3206 653 
z
" transform="scale(0.015625)"/>
     <path id="MicrosoftJhengHeiRegular-2a" d="M 4234 331 
Q 3509 -81 2622 -81 
Q 1594 -81 958 592 
Q 322 1266 322 2356 
Q 322 3475 1030 4198 
Q 1738 4922 2822 4922 
Q 3622 4922 4144 4663 
L 4144 4059 
Q 3563 4431 2756 4431 
Q 1934 4431 1407 3867 
Q 881 3303 881 2397 
Q 881 1472 1365 937 
Q 1850 403 2697 403 
Q 3281 403 3700 638 
L 3700 2022 
L 2634 2022 
L 2634 2509 
L 4234 2509 
L 4234 331 
z
" transform="scale(0.015625)"/>
     <path id="MicrosoftJhengHeiRegular-48" d="M 3322 1600 
L 872 1600 
Q 888 1003 1188 684 
Q 1488 366 2009 366 
Q 2594 366 3088 756 
L 3088 256 
Q 2634 -81 1888 -81 
Q 1166 -81 748 391 
Q 331 863 331 1719 
Q 331 2506 782 3022 
Q 1234 3538 1913 3538 
Q 2578 3538 2950 3100 
Q 3322 2663 3322 1881 
L 3322 1600 
z
M 2784 2059 
Q 2781 2547 2550 2817 
Q 2319 3088 1903 3088 
Q 1525 3088 1239 2816 
Q 953 2544 878 2059 
L 2784 2059 
z
" transform="scale(0.015625)"/>
     <path id="MicrosoftJhengHeiRegular-50" d="M 5438 0 
L 4916 0 
L 4916 1984 
Q 4916 2588 4733 2841 
Q 4550 3094 4128 3094 
Q 3775 3094 3519 2762 
Q 3263 2431 3263 1975 
L 3263 0 
L 2744 0 
L 2744 2056 
Q 2744 3094 1941 3094 
Q 1572 3094 1330 2778 
Q 1088 2463 1088 1975 
L 1088 0 
L 566 0 
L 566 3456 
L 1088 3456 
L 1088 2909 
L 1103 2909 
Q 1466 3538 2172 3538 
Q 2509 3538 2779 3339 
Q 3050 3141 3147 2816 
Q 3531 3538 4297 3538 
Q 5438 3538 5438 2128 
L 5438 0 
z
" transform="scale(0.015625)"/>
     <path id="MicrosoftJhengHeiRegular-4c" d="M 497 4700 
Q 497 4847 595 4948 
Q 694 5050 834 5050 
Q 981 5050 1082 4947 
Q 1184 4844 1184 4700 
Q 1184 4563 1082 4459 
Q 981 4356 834 4356 
Q 688 4356 592 4456 
Q 497 4556 497 4700 
z
M 569 0 
L 569 3456 
L 1088 3456 
L 1088 0 
L 569 0 
z
" transform="scale(0.015625)"/>
     <path id="MicrosoftJhengHeiRegular-51" d="M 3406 0 
L 2884 0 
L 2884 1975 
Q 2884 3094 2066 3094 
Q 1638 3094 1363 2773 
Q 1088 2453 1088 1972 
L 1088 0 
L 566 0 
L 566 3456 
L 1088 3456 
L 1088 2878 
L 1103 2878 
Q 1491 3538 2238 3538 
Q 2806 3538 3106 3172 
Q 3406 2806 3406 2113 
L 3406 0 
z
" transform="scale(0.015625)"/>
     <path id="MicrosoftJhengHeiRegular-40a1" d="M 5869 2131 
Q 5869 1513 5801 925 
Q 5734 338 5668 166 
Q 5603 -6 5479 -123 
Q 5356 -241 5143 -297 
Q 4931 -353 4469 -353 
L 4341 13 
Q 4484 0 4934 0 
Q 5091 0 5203 70 
Q 5316 141 5362 267 
Q 5409 394 5465 800 
Q 5522 1206 5538 1806 
L 1606 1806 
Q 1156 1269 603 813 
L 409 1125 
Q 1897 2306 2363 4013 
L 659 4013 
L 659 4347 
L 2438 4347 
Q 2581 4981 2625 5306 
L 2950 5234 
Q 2903 4881 2784 4347 
L 5141 4347 
Q 5047 3806 4916 3231 
L 5550 3231 
Q 5491 2716 5356 2131 
L 5869 2131 
z
M 4744 4013 
L 2706 4013 
Q 2609 3647 2444 3231 
L 4569 3231 
Q 4653 3566 4744 4013 
z
M 5153 2906 
L 2303 2906 
Q 2141 2563 1850 2131 
L 5013 2131 
Q 5100 2563 5153 2906 
z
M 1984 4634 
L 1691 4453 
Q 1475 4778 1153 5113 
L 1441 5294 
Q 1753 4978 1984 4634 
z
M 5013 544 
L 4709 403 
Q 4575 850 4288 1381 
L 4575 1522 
Q 4819 1100 5013 544 
z
M 4097 191 
L 3769 72 
Q 3659 731 3419 1331 
L 3725 1434 
Q 3934 888 4097 191 
z
M 3078 -147 
L 2725 -213 
Q 2750 425 2559 1319 
L 2875 1388 
Q 3025 713 3078 -147 
z
M 2150 1306 
Q 1881 413 1466 -238 
L 1159 -72 
Q 1556 513 1850 1388 
L 2150 1306 
z
" transform="scale(0.015625)"/>
     <path id="MicrosoftJhengHeiRegular-37" d="M 3466 4353 
L 2069 4353 
L 2069 0 
L 1534 0 
L 1534 4353 
L 141 4353 
L 141 4841 
L 3466 4841 
L 3466 4353 
z
" transform="scale(0.015625)"/>
     <path id="MicrosoftJhengHeiRegular-55" d="M 2341 2922 
Q 2197 3031 1925 3031 
Q 1559 3031 1323 2682 
Q 1088 2334 1088 1769 
L 1088 0 
L 566 0 
L 566 3456 
L 1088 3456 
L 1088 2741 
L 1103 2741 
Q 1222 3109 1465 3312 
Q 1709 3516 2003 3516 
Q 2225 3516 2341 3469 
L 2341 2922 
z
" transform="scale(0.015625)"/>
     <path id="MicrosoftJhengHeiRegular-3" transform="scale(0.015625)"/>
     <path id="MicrosoftJhengHeiRegular-33b6" d="M 2272 2425 
Q 2038 2309 1606 2119 
L 1606 116 
Q 1606 -78 1479 -195 
Q 1353 -313 997 -313 
L 672 -313 
L 544 31 
Q 775 25 938 25 
Q 1172 25 1230 44 
Q 1288 63 1288 172 
L 1288 1978 
Q 791 1781 513 1697 
L 422 2028 
Q 809 2150 1288 2350 
L 1288 3834 
L 488 3834 
L 488 4147 
L 1288 4147 
L 1288 5288 
L 1606 5288 
L 1606 4147 
L 2247 4147 
L 2247 3834 
L 1606 3834 
L 1606 2484 
Q 1909 2597 2228 2772 
L 2272 2425 
z
M 6003 4225 
L 5113 4225 
L 5113 3456 
L 4788 3456 
L 4788 4225 
L 4313 4225 
L 4313 4538 
L 4788 4538 
L 4788 5275 
L 5113 5275 
L 5113 4538 
L 6003 4538 
L 6003 4225 
z
M 4019 4225 
L 3553 4225 
L 3553 3456 
L 3219 3456 
L 3219 4225 
L 2328 4225 
L 2328 4538 
L 3219 4538 
L 3219 5275 
L 3553 5275 
L 3553 4538 
L 4019 4538 
L 4019 4225 
z
M 5728 -319 
L 5394 -319 
L 5394 -31 
L 2869 -31 
L 2869 -319 
L 2553 -319 
L 2553 3194 
L 5728 3194 
L 5728 -319 
z
M 5394 1766 
L 5394 2875 
L 4288 2875 
L 4288 1766 
L 5394 1766 
z
M 3963 1766 
L 3963 2875 
L 2869 2875 
L 2869 1766 
L 3963 1766 
z
M 5394 288 
L 5394 1453 
L 4288 1453 
L 4288 288 
L 5394 288 
z
M 3963 288 
L 3963 1453 
L 2869 1453 
L 2869 288 
L 3963 288 
z
" transform="scale(0.015625)"/>
     <path id="MicrosoftJhengHeiRegular-5fd7" d="M 5919 3788 
L 4134 3788 
L 4134 544 
L 3803 544 
L 3803 3788 
L 2297 3788 
L 2297 4116 
L 3803 4116 
L 3803 5269 
L 4134 5269 
L 4134 4116 
L 5919 4116 
L 5919 3788 
z
M 1734 4294 
L 1472 4078 
Q 1175 4531 575 5019 
L 806 5253 
Q 1388 4803 1734 4294 
z
M 5516 4525 
L 5228 4366 
Q 5009 4731 4672 5013 
L 4978 5172 
Q 5275 4919 5516 4525 
z
M 6047 97 
L 5941 -225 
Q 3606 -225 2793 -148 
Q 1981 -72 1325 488 
Q 981 -9 609 -341 
L 384 -109 
Q 1259 697 1613 1894 
L 538 1894 
L 538 2203 
Q 938 2681 1497 3500 
L 422 3500 
L 422 3803 
L 1919 3803 
L 1919 3513 
Q 1366 2703 959 2203 
L 1953 2203 
L 1953 1894 
Q 1797 1294 1478 750 
Q 2103 219 2900 151 
Q 3697 84 6047 97 
z
M 3244 3244 
Q 2997 1641 2456 856 
L 2156 1013 
Q 2694 1859 2919 3297 
L 3244 3244 
z
M 5913 997 
L 5259 997 
Q 4844 997 4844 1363 
L 4844 3250 
L 5166 3250 
L 5166 1459 
Q 5166 1306 5344 1306 
L 5913 1306 
L 5913 997 
z
" transform="scale(0.015625)"/>
     <path id="MicrosoftJhengHeiRegular-300e" d="M 2438 3263 
L 2228 3016 
Q 1963 3331 1716 3553 
L 1716 -313 
L 1381 -313 
L 1381 5281 
L 1716 5281 
L 1716 3981 
Q 2094 3659 2438 3263 
z
M 5991 -178 
L 2338 -178 
L 2338 153 
L 4122 153 
L 4122 1825 
L 2644 1825 
L 2644 2150 
L 4122 2150 
L 4122 3566 
L 3194 3566 
Q 2950 2925 2638 2472 
L 2363 2644 
Q 3006 3741 3194 4872 
L 3525 4800 
Q 3438 4291 3309 3903 
L 4122 3903 
L 4122 5259 
L 4475 5259 
L 4475 3903 
L 5881 3903 
L 5881 3566 
L 4475 3566 
L 4475 2150 
L 5734 2150 
L 5734 1825 
L 4475 1825 
L 4475 153 
L 5991 153 
L 5991 -178 
z
M 1081 3853 
Q 969 2934 756 2303 
L 428 2394 
Q 650 3081 744 3897 
L 1081 3853 
z
" transform="scale(0.015625)"/>
     <path id="MicrosoftJhengHeiRegular-23aa" d="M 4984 4347 
L 4709 4153 
Q 4575 4353 4469 4422 
Q 3403 4256 1753 4147 
L 1678 4428 
Q 2309 4747 2847 5294 
L 3238 5216 
Q 2847 4788 2381 4494 
Q 3428 4556 4256 4672 
Q 4113 4850 3950 4966 
L 4191 5172 
Q 4619 4834 4984 4347 
z
M 6069 2003 
L 5925 1691 
Q 4331 1894 3213 2713 
Q 2022 1975 622 1716 
L 397 2022 
Q 2072 2281 3244 3128 
L 3513 3047 
L 3450 3231 
Q 3938 3609 4238 4159 
L 4538 4050 
Q 4363 3709 4006 3309 
Q 4803 3378 5306 3463 
Q 5203 3641 5019 3816 
L 5281 4000 
Q 5656 3597 5959 3066 
L 5678 2881 
Q 5628 2991 5497 3200 
Q 4325 3038 3566 2969 
Q 3522 2925 3494 2913 
Q 4534 2206 6069 2003 
z
M 3009 3206 
L 2747 3003 
Q 2691 3100 2631 3163 
Q 1969 3009 634 2834 
L 544 3109 
Q 1053 3491 1459 4078 
L 1806 4006 
Q 1538 3572 1131 3206 
Q 1659 3269 2431 3406 
Q 2328 3569 2169 3688 
L 2419 3891 
Q 2681 3675 3009 3206 
z
M 3641 2094 
Q 2678 1391 1325 1147 
L 1125 1441 
Q 2459 1663 3328 2278 
L 3641 2094 
z
M 4481 1619 
Q 3191 659 1350 403 
L 1153 716 
Q 3000 897 4178 1806 
L 4481 1619 
z
M 5369 1184 
Q 3953 -159 1319 -353 
L 1106 -25 
Q 3600 75 5069 1344 
L 5369 1184 
z
" transform="scale(0.015625)"/>
     <path id="MicrosoftJhengHeiRegular-414e" d="M 5663 5063 
Q 5669 4856 5606 4231 
Q 5544 3606 5467 3479 
Q 5391 3353 5269 3281 
Q 5147 3209 4834 3209 
Q 4638 3209 4434 3231 
L 4306 3547 
Q 4541 3531 4738 3531 
Q 5059 3531 5131 3595 
Q 5203 3659 5258 3971 
Q 5313 4284 5325 4763 
L 4250 4763 
Q 4050 3547 2859 3072 
L 2656 3328 
Q 3784 3806 3916 4763 
L 2753 4763 
L 2753 5063 
L 5663 5063 
z
M 2356 1416 
L 709 1416 
L 709 4984 
L 2356 4984 
L 2356 1416 
z
M 2041 3438 
L 2041 4666 
L 1031 4666 
L 1031 3438 
L 2041 3438 
z
M 2041 1728 
L 2041 3116 
L 1031 3116 
L 1031 1728 
L 2041 1728 
z
M 5522 1350 
L 2994 1350 
L 2994 2931 
L 5522 2931 
L 5522 1350 
z
M 5203 1663 
L 5203 2619 
L 3322 2619 
L 3322 1663 
L 5203 1663 
z
M 1644 909 
Q 1231 225 659 -313 
L 403 -91 
Q 1069 541 1375 1106 
L 1644 909 
z
M 5941 -206 
L 5656 -372 
Q 5444 116 4922 928 
L 5184 1081 
Q 5641 469 5941 -206 
z
M 4378 -263 
L 4063 -384 
Q 3875 250 3553 941 
L 3853 1044 
Q 4156 491 4378 -263 
z
M 2816 -269 
L 2491 -353 
Q 2444 300 2272 966 
L 2584 1031 
Q 2788 178 2816 -269 
z
" transform="scale(0.015625)"/>
     <path id="MicrosoftJhengHeiRegular-19e" d="M 3206 3531 
Q 3363 3531 3467 3425 
Q 3572 3319 3572 3169 
Q 3572 3019 3467 2914 
Q 3363 2809 3206 2809 
Q 3063 2809 2955 2914 
Q 2847 3019 2847 3169 
Q 2847 3322 2953 3426 
Q 3059 3531 3206 3531 
z
M 2584 -884 
L 2994 769 
L 3500 769 
L 2956 -884 
L 2584 -884 
z
" transform="scale(0.015625)"/>
     <path id="MicrosoftJhengHeiRegular-1c" d="M 584 591 
Q 994 363 1438 363 
Q 2097 363 2469 902 
Q 2841 1441 2841 2434 
Q 2834 2428 2828 2434 
Q 2516 1803 1741 1803 
Q 1116 1803 719 2231 
Q 322 2659 322 3309 
Q 322 4000 745 4461 
Q 1169 4922 1866 4922 
Q 2594 4922 2981 4351 
Q 3369 3781 3369 2713 
Q 3369 1394 2861 656 
Q 2353 -81 1416 -81 
Q 931 -81 584 81 
L 584 591 
z
M 856 3388 
Q 856 2881 1122 2576 
Q 1388 2272 1853 2272 
Q 2266 2272 2536 2545 
Q 2806 2819 2806 3206 
Q 2806 3747 2536 4111 
Q 2266 4475 1816 4475 
Q 1394 4475 1125 4158 
Q 856 3841 856 3388 
z
" transform="scale(0.015625)"/>
     <path id="MicrosoftJhengHeiRegular-25" d="M 641 0 
L 641 4841 
L 1994 4841 
Q 2597 4841 2965 4537 
Q 3334 4234 3334 3734 
Q 3334 3328 3117 3022 
Q 2900 2716 2503 2581 
L 2503 2569 
Q 2988 2522 3283 2206 
Q 3578 1891 3578 1388 
Q 3578 772 3136 386 
Q 2694 0 2019 0 
L 641 0 
z
M 1172 4347 
L 1172 2756 
L 1759 2756 
Q 2241 2756 2509 2986 
Q 2778 3216 2778 3628 
Q 2778 4347 1841 4347 
L 1172 4347 
z
M 1172 2266 
L 1172 494 
L 1956 494 
Q 2456 494 2739 733 
Q 3022 972 3022 1394 
Q 3022 2266 1828 2266 
L 1172 2266 
z
" transform="scale(0.015625)"/>
     <path id="MicrosoftJhengHeiRegular-51ee" d="M 4050 4531 
L 2950 4531 
Q 2897 4150 2847 3853 
L 4013 3853 
Q 3969 2144 3820 1884 
Q 3672 1625 3297 1625 
Q 3097 1625 3028 1631 
L 2919 1959 
Q 3144 1947 3272 1947 
Q 3528 1947 3589 2147 
Q 3650 2347 3694 3541 
L 2456 3541 
Q 2563 4091 2731 5306 
L 3041 5275 
Q 3019 5069 2988 4838 
L 4050 4838 
L 4050 4531 
z
M 5984 1141 
L 428 1141 
L 428 1466 
L 909 1466 
L 884 4794 
Q 1391 4894 2156 5259 
L 2316 4972 
Q 1803 4725 1209 4544 
Q 1197 4125 1209 3809 
L 2181 3809 
L 2181 3494 
L 1216 3494 
Q 1228 3066 1216 2656 
L 2138 2656 
L 2138 2328 
L 1228 2328 
L 1228 1466 
L 5184 1466 
Q 5203 2213 5203 2338 
L 4325 2338 
L 4325 2656 
L 5209 2656 
Q 5216 2859 5216 3494 
L 4331 3494 
L 4331 3816 
L 5216 3816 
Q 5234 4078 5234 4366 
Q 5234 4525 5228 4659 
L 4359 4659 
L 4359 4972 
L 5569 4972 
Q 5531 2444 5503 1466 
L 5984 1466 
L 5984 1141 
z
M 2919 3144 
Q 2775 2175 2369 1613 
L 2094 1825 
Q 2497 2322 2613 3219 
L 2919 3144 
z
M 5913 -50 
L 5672 -281 
Q 4884 234 3916 622 
L 4147 863 
Q 5291 375 5913 -50 
z
M 2566 634 
Q 1741 19 750 -331 
L 513 -50 
Q 1581 288 2297 838 
L 2566 634 
z
" transform="scale(0.015625)"/>
     <path id="MicrosoftJhengHeiRegular-6134" d="M 5984 1147 
Q 5947 322 5850 119 
Q 5753 -84 5578 -150 
Q 5403 -216 4794 -216 
Q 4119 -216 3997 -192 
Q 3875 -169 3778 -58 
Q 3681 53 3681 275 
L 3681 3103 
L 5388 3103 
L 5388 4775 
L 3584 4775 
L 3584 5094 
L 5722 5094 
L 5722 2784 
L 4000 2784 
L 4000 306 
Q 4000 238 4056 181 
Q 4113 125 4211 120 
Q 4309 116 5247 116 
Q 5538 116 5600 447 
Q 5663 778 5663 1247 
L 5984 1147 
z
M 3353 4769 
L 2394 4769 
L 2394 3938 
L 3169 3938 
L 3169 -300 
L 2847 -300 
L 2847 72 
L 953 72 
L 953 -294 
L 628 -294 
L 628 3938 
L 1409 3938 
L 1409 4769 
L 434 4769 
L 434 5075 
L 3353 5075 
L 3353 4769 
z
M 2081 3938 
L 2081 4769 
L 1709 4769 
L 1709 3938 
L 2081 3938 
z
M 2847 2356 
L 2847 3628 
L 2394 3628 
L 2394 2516 
Q 2394 2356 2578 2356 
L 2847 2356 
z
M 1388 3628 
L 959 3628 
L 959 1953 
Q 1388 2425 1388 3628 
z
M 2847 391 
L 2847 2034 
L 2553 2034 
Q 2081 2034 2081 2463 
L 2081 3628 
L 1691 3628 
Q 1700 2169 1094 1619 
L 959 1734 
L 959 391 
L 2847 391 
z
M 2578 1094 
L 1197 1094 
L 1197 1388 
L 2578 1388 
L 2578 1094 
z
" transform="scale(0.015625)"/>
     <path id="MicrosoftJhengHeiRegular-2bf4" d="M 3531 197 
Q 2266 -25 544 -172 
L 447 153 
Q 1100 191 1894 275 
L 1894 1131 
L 653 1131 
L 653 1453 
L 1894 1453 
L 1894 2181 
L 531 2181 
L 531 2497 
L 1369 2497 
Q 1225 2981 1044 3353 
L 525 3353 
L 525 3653 
L 1459 3653 
L 1459 5253 
L 1784 5253 
L 1784 3653 
L 2350 3653 
L 2350 5253 
L 2675 5253 
L 2675 3653 
L 3494 3653 
L 3494 3353 
L 3009 3353 
Q 2866 2916 2675 2497 
L 3438 2497 
L 3438 2181 
L 2216 2181 
L 2216 1453 
L 3297 1453 
L 3297 1131 
L 2216 1131 
L 2216 319 
Q 2834 388 3531 525 
L 3531 197 
z
M 2656 3353 
L 1409 3353 
Q 1575 2969 1716 2497 
L 2322 2497 
Q 2547 3000 2656 3353 
z
M 6009 3531 
L 5422 3531 
L 5422 244 
Q 5422 19 5315 -112 
Q 5209 -244 5075 -286 
Q 4941 -328 4528 -328 
Q 4309 -328 4122 -313 
L 3994 19 
Q 4328 0 4831 0 
Q 5094 0 5094 269 
L 5094 3531 
L 3694 3531 
L 3694 3853 
L 5094 3853 
L 5094 5247 
L 5422 5247 
L 5422 3853 
L 6009 3853 
L 6009 3531 
z
M 3725 4934 
Q 3516 4350 3219 3903 
L 2950 4072 
Q 3309 4656 3425 5063 
L 3725 4934 
z
M 1197 4044 
L 909 3909 
Q 766 4428 506 4891 
L 775 5025 
Q 1038 4572 1197 4044 
z
M 4653 1388 
L 4341 1234 
Q 4109 1997 3694 2753 
L 3969 2913 
Q 4325 2319 4653 1388 
z
" transform="scale(0.015625)"/>
     <path id="MicrosoftJhengHeiRegular-3bbb" d="M 6009 1556 
Q 6009 1166 5948 714 
Q 5888 263 5820 131 
Q 5753 0 5609 -111 
Q 5466 -222 4983 -233 
Q 4500 -244 4366 -244 
Q 3959 -244 3787 -226 
Q 3616 -209 3497 -71 
Q 3378 66 3378 263 
L 3378 5275 
L 3719 5275 
L 3719 3391 
L 5791 3391 
L 5791 3053 
L 3719 3053 
L 3719 288 
Q 3719 184 3795 140 
Q 3872 97 4438 97 
Q 5050 97 5294 125 
Q 5538 153 5600 573 
Q 5663 994 5663 1663 
L 6009 1556 
z
M 3047 581 
Q 1769 -13 794 -347 
L 641 25 
Q 738 116 738 213 
L 738 5275 
L 1081 5275 
L 1081 3391 
L 2950 3391 
L 2950 3053 
L 1081 3053 
L 1081 128 
Q 1753 341 2950 922 
L 3047 581 
z
" transform="scale(0.015625)"/>
     <path id="MicrosoftJhengHeiRegular-5eea" d="M 5941 4238 
L 3244 4238 
L 3244 4556 
L 4366 4556 
Q 4247 4866 4063 5209 
L 4384 5319 
Q 4606 4859 4716 4556 
L 5941 4556 
L 5941 4238 
z
M 3059 544 
L 1919 544 
L 1919 -331 
L 1600 -331 
L 1600 544 
L 434 544 
L 434 856 
L 1600 856 
L 1600 1434 
L 659 1434 
L 659 3872 
L 1600 3872 
L 1600 4378 
L 494 4378 
L 494 4697 
L 1600 4697 
L 1600 5288 
L 1919 5288 
L 1919 4697 
L 2981 4697 
L 2981 4378 
L 1919 4378 
L 1919 3872 
L 2888 3872 
L 2888 1434 
L 1919 1434 
L 1919 856 
L 3059 856 
L 3059 544 
z
M 2566 2834 
L 2566 3566 
L 1919 3566 
L 1919 2834 
L 2566 2834 
z
M 1600 2834 
L 1600 3566 
L 984 3566 
L 984 2834 
L 1600 2834 
z
M 2566 1747 
L 2566 2528 
L 1919 2528 
L 1919 1747 
L 2566 1747 
z
M 1600 1747 
L 1600 2528 
L 984 2528 
L 984 1747 
L 1600 1747 
z
M 4172 3816 
Q 3822 3056 3303 2431 
L 3028 2606 
Q 3556 3244 3884 3969 
L 4172 3816 
z
M 5997 2591 
L 5722 2425 
Q 5363 3100 4800 3794 
L 5081 3963 
Q 5547 3406 5997 2591 
z
M 6034 -84 
L 5831 -359 
Q 4931 178 4481 709 
Q 3950 113 3116 -353 
L 2894 -97 
Q 3772 388 4269 984 
Q 3928 1506 3653 2559 
L 3969 2675 
Q 4153 1819 4488 1281 
Q 4816 1744 5100 2656 
L 5403 2528 
Q 5144 1622 4684 991 
Q 5147 416 6034 -84 
z
" transform="scale(0.015625)"/>
     <path id="MicrosoftJhengHeiRegular-2db" d="M 3222 3100 
Q 3491 3100 3681 2915 
Q 3872 2731 3872 2453 
Q 3872 2175 3697 1994 
Q 3522 1813 3247 1813 
Q 2997 1813 2805 1973 
Q 2613 2134 2613 2466 
Q 2613 2775 2808 2937 
Q 3003 3100 3222 3100 
z
M 3609 2450 
Q 3609 2616 3496 2717 
Q 3384 2819 3225 2819 
Q 3069 2819 2964 2708 
Q 2859 2597 2859 2450 
Q 2859 2313 2959 2191 
Q 3059 2069 3231 2069 
Q 3394 2069 3501 2175 
Q 3609 2281 3609 2450 
z
" transform="scale(0.015625)"/>
     <path id="MicrosoftJhengHeiRegular-242f" d="M 5375 3419 
L 1069 3419 
L 1069 5113 
L 5375 5113 
L 5375 3419 
z
M 5031 3738 
L 5031 4794 
L 1422 4794 
L 1422 3738 
L 5031 3738 
z
M 6016 -178 
L 447 -178 
L 447 141 
L 3041 141 
L 3041 1216 
L 831 1216 
L 831 1538 
L 3041 1538 
L 3041 2350 
Q 1828 2263 872 2272 
L 738 2584 
Q 3106 2559 5403 2988 
L 5600 2700 
Q 4544 2500 3378 2381 
L 3378 1538 
L 5631 1538 
L 5631 1216 
L 3378 1216 
L 3378 141 
L 6016 141 
L 6016 -178 
z
" transform="scale(0.015625)"/>
     <path id="MicrosoftJhengHeiRegular-43e5" d="M 6028 794 
Q 5997 356 5894 131 
Q 5791 -94 5647 -170 
Q 5503 -247 5100 -247 
Q 4888 -247 4728 -237 
Q 4569 -228 4476 -123 
Q 4384 -19 4384 206 
L 4384 1703 
L 3794 1703 
Q 3653 134 2053 -347 
L 1850 -78 
Q 3353 316 3469 1703 
L 2809 1703 
L 2809 5100 
L 5581 5100 
L 5581 1703 
L 4709 1703 
L 4709 206 
Q 4709 134 4768 96 
Q 4828 59 5147 59 
Q 5447 59 5517 120 
Q 5588 181 5655 443 
Q 5722 706 5722 947 
L 6028 794 
z
M 5253 4103 
L 5253 4794 
L 3128 4794 
L 3128 4103 
L 5253 4103 
z
M 5253 3072 
L 5253 3794 
L 3128 3794 
L 3128 3072 
L 5253 3072 
z
M 5253 2016 
L 5253 2766 
L 3128 2766 
L 3128 2016 
L 5253 2016 
z
M 2419 1269 
Q 1394 688 550 269 
L 409 550 
L 1281 991 
L 1281 2766 
L 525 2766 
L 525 3066 
L 1281 3066 
L 1281 4519 
L 459 4519 
L 459 4831 
L 2381 4831 
L 2381 4519 
L 1606 4519 
L 1606 3066 
L 2284 3066 
L 2284 2766 
L 1606 2766 
L 1606 1172 
Q 1959 1356 2344 1575 
L 2419 1269 
z
" transform="scale(0.015625)"/>
     <path id="MicrosoftJhengHeiRegular-67ed" d="M 2778 -319 
L 2456 -319 
L 2456 5281 
L 2778 5281 
L 2778 -319 
z
M 1106 2272 
Q 1106 725 703 -178 
L 428 -6 
Q 800 972 800 2272 
L 800 5281 
L 1106 5281 
L 1106 2272 
z
M 5991 4788 
L 4716 4788 
L 4544 4050 
L 5716 4050 
L 5716 941 
L 4178 941 
L 4409 738 
Q 3947 191 3244 -325 
L 2994 -84 
Q 3694 388 4134 941 
L 3334 941 
L 3334 4050 
L 4213 4050 
Q 4359 4606 4397 4788 
L 3078 4788 
L 3078 5100 
L 5991 5100 
L 5991 4788 
z
M 5403 3138 
L 5403 3738 
L 3659 3738 
L 3659 3138 
L 5403 3138 
z
M 5403 2234 
L 5403 2828 
L 3659 2828 
L 3659 2234 
L 5403 2234 
z
M 5403 1259 
L 5403 1913 
L 3659 1913 
L 3659 1259 
L 5403 1259 
z
M 1941 263 
L 1625 263 
L 1625 4972 
L 1941 4972 
L 1941 263 
z
M 6016 -63 
L 5766 -325 
Q 5325 116 4678 525 
L 4891 781 
Q 5494 431 6016 -63 
z
" transform="scale(0.015625)"/>
     <path id="MicrosoftJhengHeiRegular-2e76" d="M 5997 4347 
L 1338 4347 
L 1338 2203 
L 3975 2203 
Q 3197 2656 2450 2913 
L 2650 3175 
Q 3072 3025 3700 2731 
Q 4397 3056 4934 3494 
L 1913 3494 
L 1913 3809 
L 5416 3809 
L 5416 3488 
Q 4931 3013 4031 2559 
Q 4209 2456 4378 2344 
L 4269 2203 
L 5881 2203 
L 5881 1869 
Q 5516 1188 5019 716 
L 4744 928 
Q 5222 1359 5509 1875 
L 3903 1875 
L 3903 166 
Q 3903 -331 3359 -331 
Q 2897 -331 2700 -325 
L 2591 31 
Q 2938 16 3163 16 
Q 3463 16 3508 47 
Q 3553 78 3553 147 
L 3553 1875 
L 1325 1875 
Q 1284 622 716 -359 
L 409 -166 
Q 991 744 991 2094 
L 991 4672 
L 3238 4672 
Q 3119 4941 2956 5159 
L 3284 5288 
Q 3447 5063 3647 4672 
L 5997 4672 
L 5997 4347 
z
" transform="scale(0.015625)"/>
     <path id="MicrosoftJhengHeiRegular-2bf" d="M 4947 2216 
Q 4488 2531 4263 3034 
L 4575 3188 
Q 4756 2756 5142 2462 
Q 5528 2169 5919 2169 
L 5919 1875 
Q 5528 1875 5142 1581 
Q 4756 1288 4575 856 
L 4263 1013 
Q 4472 1484 4953 1831 
L 481 1831 
L 481 2216 
L 4947 2216 
z
" transform="scale(0.015625)"/>
     <path id="MicrosoftJhengHeiRegular-44" d="M 647 3209 
Q 1156 3538 1813 3538 
Q 3016 3538 3016 2259 
L 3016 0 
L 2494 0 
L 2494 544 
L 2475 544 
Q 2116 -81 1413 -81 
Q 900 -81 604 192 
Q 309 466 309 916 
Q 309 1875 1447 2038 
L 2491 2188 
Q 2491 3088 1772 3088 
Q 1144 3088 647 2659 
L 647 3209 
z
M 1644 1641 
Q 1200 1581 1026 1426 
Q 853 1272 853 950 
Q 853 691 1039 528 
Q 1225 366 1525 366 
Q 1941 366 2216 662 
Q 2491 959 2491 1403 
L 2491 1753 
L 1644 1641 
z
" transform="scale(0.015625)"/>
     <path id="MicrosoftJhengHeiRegular-56" d="M 350 703 
Q 803 369 1344 369 
Q 2081 369 2081 866 
Q 2081 1084 1920 1221 
Q 1759 1359 1288 1538 
Q 725 1759 540 1984 
Q 356 2209 356 2544 
Q 356 2988 736 3263 
Q 1116 3538 1669 3538 
Q 2113 3538 2463 3381 
L 2463 2838 
Q 2081 3088 1584 3088 
Q 1278 3088 1086 2950 
Q 894 2813 894 2588 
Q 894 2363 1026 2244 
Q 1159 2125 1625 1934 
Q 2216 1709 2417 1479 
Q 2619 1250 2619 916 
Q 2619 453 2239 186 
Q 1859 -81 1266 -81 
Q 731 -81 350 128 
L 350 703 
z
" transform="scale(0.015625)"/>
     <path id="MicrosoftJhengHeiRegular-4f" d="M 569 0 
L 569 5116 
L 1088 5116 
L 1088 0 
L 569 0 
z
" transform="scale(0.015625)"/>
     <path id="MicrosoftJhengHeiRegular-1df4" d="M 6100 1422 
L 5888 1147 
Q 4453 2288 3413 2822 
L 3413 -359 
L 3053 -359 
L 3053 3244 
Q 2147 2163 616 1153 
L 391 1447 
Q 2747 2853 3591 4775 
L 519 4775 
L 519 5119 
L 5959 5119 
L 5959 4775 
L 3981 4775 
Q 3750 4278 3413 3731 
L 3413 3219 
Q 5203 2181 6100 1422 
z
" transform="scale(0.015625)"/>
     <path id="MicrosoftJhengHeiRegular-1eca" d="M 2094 5178 
Q 2000 4925 1825 4547 
L 1650 4172 
L 1650 -331 
L 1306 -331 
L 1306 3513 
Q 903 2825 575 2456 
L 384 2772 
Q 1147 3703 1759 5294 
L 2094 5178 
z
M 6003 3378 
L 3713 3150 
Q 3763 2016 4042 1300 
Q 4322 584 4711 273 
Q 5100 -38 5241 -38 
Q 5309 -38 5350 12 
Q 5391 63 5483 475 
Q 5575 888 5575 1288 
L 5919 1141 
Q 5878 625 5776 234 
Q 5675 -156 5562 -265 
Q 5450 -375 5275 -375 
Q 4963 -375 4491 20 
Q 4019 416 3726 1186 
Q 3434 1956 3366 3116 
L 1997 2975 
L 1966 3322 
L 3341 3456 
Q 3291 4303 3291 4884 
Q 3291 5088 3297 5275 
L 3634 5275 
Q 3622 4234 3681 3494 
L 5972 3719 
L 6003 3378 
z
M 5459 4128 
L 5172 3956 
Q 4838 4475 4300 4941 
L 4594 5119 
Q 5200 4619 5459 4128 
z
" transform="scale(0.015625)"/>
     <path id="MicrosoftJhengHeiRegular-584f" d="M 5997 2375 
L 3034 2375 
Q 2772 2006 2419 1691 
L 2419 78 
Q 2947 153 3891 525 
L 3963 206 
Q 2922 -178 2138 -325 
L 1959 -44 
Q 2081 9 2081 141 
L 2081 1409 
Q 1469 953 647 569 
L 434 844 
Q 1906 1509 2619 2375 
L 441 2375 
L 441 2681 
L 3091 2681 
L 3091 3397 
L 872 3397 
L 872 3719 
L 3091 3719 
L 3091 4403 
L 581 4403 
L 581 4716 
L 3091 4716 
L 3091 5253 
L 3419 5253 
L 3419 4716 
L 5881 4716 
L 5881 4403 
L 3419 4403 
L 3419 3719 
L 5563 3719 
L 5563 3397 
L 3419 3397 
L 3419 2681 
L 5997 2681 
L 5997 2375 
z
M 6041 -50 
L 5856 -347 
Q 4975 -16 4392 492 
Q 3809 1000 3413 1925 
L 3694 2094 
Q 4006 1381 4325 1031 
Q 5016 1497 5447 1984 
L 5709 1772 
Q 5116 1169 4556 794 
Q 5122 269 6041 -50 
z
" transform="scale(0.015625)"/>
     <path id="MicrosoftJhengHeiRegular-2b" d="M 4241 0 
L 3709 0 
L 3709 2222 
L 1172 2222 
L 1172 0 
L 641 0 
L 641 4841 
L 1172 4841 
L 1172 2703 
L 3709 2703 
L 3709 4841 
L 4241 4841 
L 4241 0 
z
" transform="scale(0.015625)"/>
     <path id="MicrosoftJhengHeiRegular-23d6" d="M 5997 4819 
L 5281 4819 
L 5281 116 
Q 5281 -94 5132 -203 
Q 4984 -313 4775 -313 
Q 3922 -313 3634 -306 
L 3513 50 
Q 3909 19 4750 19 
Q 4953 19 4953 213 
L 4953 4819 
L 428 4819 
L 428 5141 
L 5997 5141 
L 5997 4819 
z
M 3828 1159 
L 1125 1159 
L 1125 3750 
L 3828 3750 
L 3828 1159 
z
M 3494 1491 
L 3494 3413 
L 1459 3413 
L 1459 1491 
L 3494 1491 
z
" transform="scale(0.015625)"/>
     <path id="MicrosoftJhengHeiRegular-1fd5" d="M 6047 2731 
L 5863 2419 
Q 4791 2734 4306 3066 
Q 3509 2619 2631 2419 
L 2463 2719 
Q 3550 2994 4013 3278 
Q 3572 3656 3372 3956 
L 3669 4097 
Q 3969 3684 4300 3456 
Q 4803 3800 5159 4434 
L 3425 4434 
Q 3128 4019 2731 3700 
L 2444 3903 
Q 3134 4444 3603 5319 
L 3950 5234 
Q 3781 4944 3659 4763 
L 5984 4763 
L 5984 4434 
L 5522 4434 
Q 5113 3653 4588 3272 
Q 5116 2938 6047 2731 
z
M 1778 5172 
L 1409 4044 
L 1409 -306 
L 1081 -306 
L 1081 3219 
Q 856 2691 609 2284 
L 397 2597 
Q 981 3591 1459 5288 
L 1778 5172 
z
M 2253 197 
L 1941 197 
L 1941 4300 
L 2253 4300 
L 2253 197 
z
M 4647 2400 
Q 3947 1791 2713 1509 
L 2534 1797 
Q 3716 2041 4378 2613 
L 4647 2400 
z
M 5356 1925 
Q 4403 978 2816 647 
L 2631 959 
Q 4231 1259 5081 2131 
L 5356 1925 
z
M 5978 1394 
Q 4841 -88 2822 -341 
L 2644 -31 
Q 4741 256 5672 1569 
L 5978 1394 
z
" transform="scale(0.015625)"/>
     <path id="MicrosoftJhengHeiRegular-2f90" d="M 5953 4519 
L 2950 4519 
Q 2644 4150 2209 3756 
L 1941 3963 
Q 2784 4731 3122 5313 
L 3413 5159 
Q 3316 4981 3213 4844 
L 5953 4844 
L 5953 4519 
z
M 2047 5106 
Q 1416 4284 622 3763 
L 403 4019 
Q 1191 4509 1784 5288 
L 2047 5106 
z
M 6034 -25 
L 5869 -341 
Q 4659 -100 3938 256 
Q 3063 -153 2028 -353 
L 1856 -50 
Q 2894 134 3603 441 
Q 3144 750 2759 1131 
Q 2384 844 2034 641 
L 1819 872 
Q 2294 1181 2534 1375 
L 2303 1650 
L 2553 1825 
Q 2638 1716 2772 1581 
Q 3038 1791 3353 2203 
L 2619 2203 
L 2619 4019 
L 5522 4019 
L 5522 2203 
L 3769 2203 
Q 3609 1959 3431 1753 
L 5575 1753 
L 5575 1434 
Q 4978 806 4306 428 
Q 5094 103 6034 -25 
z
M 5197 3278 
L 5197 3700 
L 2944 3700 
L 2944 3278 
L 5197 3278 
z
M 5197 2509 
L 5197 2963 
L 2944 2963 
L 2944 2509 
L 5197 2509 
z
M 5119 1434 
L 3122 1434 
Q 3047 1356 3009 1331 
Q 3503 847 3956 609 
Q 4641 975 5119 1434 
z
M 1991 3494 
Q 1719 3050 1466 2719 
L 1466 -313 
L 1141 -313 
L 1141 2322 
Q 919 2088 563 1778 
L 372 2053 
Q 1184 2741 1722 3669 
L 1991 3494 
z
" transform="scale(0.015625)"/>
     <path id="MicrosoftJhengHeiRegular-4a7e" d="M 5791 3719 
L 5472 3719 
L 5472 4416 
L 3988 4416 
L 3988 3938 
Q 3988 3769 4166 3769 
L 5184 3769 
L 5184 3456 
L 4103 3456 
Q 3681 3456 3681 3847 
L 3681 4416 
L 2975 4416 
Q 2838 3969 2416 3667 
Q 1994 3366 1491 3303 
L 1288 3584 
Q 2341 3697 2644 4416 
L 1006 4416 
L 1006 3731 
L 666 3731 
L 666 4738 
L 3103 4738 
Q 2891 5031 2784 5166 
L 3072 5319 
Q 3234 5138 3494 4738 
L 5791 4738 
L 5791 3719 
z
M 5503 -353 
L 5166 -353 
L 5166 -56 
L 1300 -56 
L 1300 -353 
L 972 -353 
L 972 3003 
L 2638 3003 
Q 2922 3484 3003 3659 
L 3316 3559 
Q 3213 3338 3016 3003 
L 5503 3003 
L 5503 -353 
z
M 5166 269 
L 5166 2681 
L 1300 2681 
L 1300 269 
L 5166 269 
z
M 4800 738 
L 4588 513 
Q 4059 900 3559 1203 
Q 2753 666 2009 459 
L 1784 703 
Q 2619 959 3263 1381 
Q 2931 1572 2713 1691 
Q 2269 1403 1906 1281 
L 1697 1528 
Q 2072 1659 2388 1863 
Q 2206 1966 1825 2156 
L 2041 2388 
Q 2347 2238 2675 2053 
Q 3028 2325 3163 2509 
L 3431 2350 
Q 3266 2134 2981 1894 
L 3541 1569 
Q 3931 1813 4347 2350 
L 4616 2203 
Q 4331 1784 3828 1403 
Q 4166 1194 4800 738 
z
" transform="scale(0.015625)"/>
     <path id="MicrosoftJhengHeiRegular-23ca" d="M 5428 -153 
L 5081 -153 
L 5081 331 
L 1381 331 
L 1381 -153 
L 1025 -153 
L 1025 4878 
L 5428 4878 
L 5428 -153 
z
M 5081 678 
L 5081 4531 
L 1381 4531 
L 1381 678 
L 5081 678 
z
" transform="scale(0.015625)"/>
     <path id="MicrosoftJhengHeiRegular-34" d="M 3138 -19 
L 4309 -1191 
L 3566 -1191 
L 2556 -78 
Q 1475 -59 898 617 
Q 322 1294 322 2363 
Q 322 3519 923 4217 
Q 1525 4916 2669 4916 
Q 3716 4916 4302 4242 
Q 4888 3569 4888 2484 
Q 4888 1478 4456 814 
Q 4025 150 3138 -19 
z
M 2625 4441 
Q 1806 4441 1342 3880 
Q 878 3319 878 2413 
Q 878 1503 1328 950 
Q 1778 397 2581 397 
Q 3413 397 3872 939 
Q 4331 1481 4331 2413 
Q 4331 3369 3901 3905 
Q 3472 4441 2625 4441 
z
" transform="scale(0.015625)"/>
     <path id="MicrosoftJhengHeiRegular-5a" d="M 4878 3456 
L 3841 0 
L 3300 0 
L 2575 2503 
Q 2534 2644 2522 2816 
L 2509 2816 
Q 2506 2728 2438 2509 
L 1653 0 
L 1134 0 
L 84 3456 
L 631 3456 
L 1363 834 
Q 1397 709 1409 528 
L 1434 528 
Q 1447 672 1497 841 
L 2306 3456 
L 2781 3456 
L 3509 828 
Q 3538 722 3559 522 
L 3588 522 
Q 3591 650 3644 828 
L 4363 3456 
L 4878 3456 
z
" transform="scale(0.015625)"/>
     <path id="MicrosoftJhengHeiRegular-53" d="M 1088 506 
L 1088 -1591 
L 566 -1591 
L 566 3456 
L 1088 3456 
L 1088 2844 
L 1103 2844 
Q 1513 3538 2300 3538 
Q 2959 3538 3340 3077 
Q 3722 2616 3722 1828 
Q 3722 966 3295 442 
Q 2869 -81 2141 -81 
Q 1466 -81 1103 506 
L 1088 506 
z
M 1088 1400 
Q 1088 966 1378 664 
Q 1669 363 2094 363 
Q 2603 363 2895 756 
Q 3188 1150 3188 1844 
Q 3188 2428 2913 2761 
Q 2638 3094 2181 3094 
Q 1706 3094 1397 2758 
Q 1088 2422 1088 1900 
L 1088 1400 
z
" transform="scale(0.015625)"/>
     <path id="MicrosoftJhengHeiRegular-57" d="M 2138 34 
Q 1947 -75 1634 -75 
Q 744 -75 744 928 
L 744 3006 
L 144 3006 
L 144 3456 
L 744 3456 
L 744 4306 
L 1263 4475 
L 1263 3456 
L 2138 3456 
L 2138 3006 
L 1263 3006 
L 1263 1022 
Q 1263 669 1381 519 
Q 1500 369 1778 369 
Q 1994 369 2138 484 
L 2138 34 
z
" transform="scale(0.015625)"/>
     <path id="MicrosoftJhengHeiRegular-52" d="M 331 1684 
Q 331 2547 801 3042 
Q 1272 3538 2081 3538 
Q 2844 3538 3276 3059 
Q 3709 2581 3709 1738 
Q 3709 919 3240 419 
Q 2772 -81 2000 -81 
Q 1253 -81 792 400 
Q 331 881 331 1684 
z
M 863 1706 
Q 863 1094 1183 728 
Q 1503 363 2038 363 
Q 2581 363 2879 719 
Q 3178 1075 3178 1719 
Q 3178 2378 2883 2736 
Q 2588 3094 2038 3094 
Q 1500 3094 1181 2723 
Q 863 2353 863 1706 
z
" transform="scale(0.015625)"/>
     <path id="MicrosoftJhengHeiRegular-20" d="M 3947 2522 
L 784 2522 
L 784 2950 
L 3947 2950 
L 3947 2522 
z
M 3947 1084 
L 784 1084 
L 784 1516 
L 3947 1516 
L 3947 1084 
z
" transform="scale(0.015625)"/>
     <path id="MicrosoftJhengHeiRegular-1a" d="M 3391 4688 
L 1459 0 
L 922 0 
L 2741 4366 
L 288 4366 
L 288 4841 
L 3391 4841 
L 3391 4688 
z
" transform="scale(0.015625)"/>
     <path id="MicrosoftJhengHeiRegular-12" d="M 2719 4841 
L 397 -803 
L -88 -803 
L 2225 4841 
L 2719 4841 
z
" transform="scale(0.015625)"/>
     <path id="MicrosoftJhengHeiRegular-16" d="M 438 756 
Q 934 363 1556 363 
Q 2056 363 2370 616 
Q 2684 869 2684 1313 
Q 2684 2281 1319 2281 
L 919 2281 
L 919 2728 
L 1300 2728 
Q 2513 2728 2513 3634 
Q 2513 4475 1588 4475 
Q 1075 4475 625 4122 
L 625 4644 
Q 1088 4922 1719 4922 
Q 2294 4922 2670 4606 
Q 3047 4291 3047 3769 
Q 3047 2819 2075 2538 
L 2075 2525 
Q 2591 2481 2905 2162 
Q 3219 1844 3219 1369 
Q 3219 706 2742 312 
Q 2266 -81 1525 -81 
Q 844 -81 438 178 
L 438 756 
z
" transform="scale(0.015625)"/>
    </defs>
    <use xlink:href="#MicrosoftJhengHeiRegular-5a22"/>
    <use xlink:href="#MicrosoftJhengHeiRegular-19d" transform="translate(100 0)"/>
    <use xlink:href="#MicrosoftJhengHeiRegular-2a" transform="translate(200 0)"/>
    <use xlink:href="#MicrosoftJhengHeiRegular-48" transform="translate(273.875 0)"/>
    <use xlink:href="#MicrosoftJhengHeiRegular-50" transform="translate(330.21875 0)"/>
    <use xlink:href="#MicrosoftJhengHeiRegular-4c" transform="translate(422.84375 0)"/>
    <use xlink:href="#MicrosoftJhengHeiRegular-51" transform="translate(448.765625 0)"/>
    <use xlink:href="#MicrosoftJhengHeiRegular-4c" transform="translate(509.609375 0)"/>
    <use xlink:href="#MicrosoftJhengHeiRegular-40a1" transform="translate(535.53125 0)"/>
    <use xlink:href="#MicrosoftJhengHeiRegular-37" transform="translate(635.53125 0)"/>
    <use xlink:href="#MicrosoftJhengHeiRegular-4c" transform="translate(691.6875 0)"/>
    <use xlink:href="#MicrosoftJhengHeiRegular-48" transform="translate(717.609375 0)"/>
    <use xlink:href="#MicrosoftJhengHeiRegular-55" transform="translate(773.953125 0)"/>
    <use xlink:href="#MicrosoftJhengHeiRegular-3" transform="translate(811.15625 0)"/>
    <use xlink:href="#MicrosoftJhengHeiRegular-15" transform="translate(836.15625 0)"/>
    <use xlink:href="#MicrosoftJhengHeiRegular-33b6" transform="translate(894.109375 0)"/>
    <use xlink:href="#MicrosoftJhengHeiRegular-5fd7" transform="translate(994.109375 0)"/>
    <use xlink:href="#MicrosoftJhengHeiRegular-300e" transform="translate(1094.109375 0)"/>
    <use xlink:href="#MicrosoftJhengHeiRegular-23aa" transform="translate(1194.109375 0)"/>
    <use xlink:href="#MicrosoftJhengHeiRegular-414e" transform="translate(1294.109375 0)"/>
    <use xlink:href="#MicrosoftJhengHeiRegular-19e" transform="translate(1394.109375 0)"/>
    <use xlink:href="#MicrosoftJhengHeiRegular-1c" transform="translate(1494.109375 0)"/>
    <use xlink:href="#MicrosoftJhengHeiRegular-25" transform="translate(1552.0625 0)"/>
    <use xlink:href="#MicrosoftJhengHeiRegular-51ee" transform="translate(1613.484375 0)"/>
    <use xlink:href="#MicrosoftJhengHeiRegular-17" transform="translate(1713.484375 0)"/>
    <use xlink:href="#MicrosoftJhengHeiRegular-25" transform="translate(1771.4375 0)"/>
    <use xlink:href="#MicrosoftJhengHeiRegular-40a1" transform="translate(1832.859375 0)"/>
    <use xlink:href="#MicrosoftJhengHeiRegular-37" transform="translate(1932.859375 0)"/>
    <use xlink:href="#MicrosoftJhengHeiRegular-4c" transform="translate(1989.015625 0)"/>
    <use xlink:href="#MicrosoftJhengHeiRegular-48" transform="translate(2014.9375 0)"/>
    <use xlink:href="#MicrosoftJhengHeiRegular-55" transform="translate(2071.28125 0)"/>
    <use xlink:href="#MicrosoftJhengHeiRegular-3" transform="translate(2108.484375 0)"/>
    <use xlink:href="#MicrosoftJhengHeiRegular-14" transform="translate(2133.484375 0)"/>
    <use xlink:href="#MicrosoftJhengHeiRegular-6134" transform="translate(2191.4375 0)"/>
    <use xlink:href="#MicrosoftJhengHeiRegular-2bf4" transform="translate(2291.4375 0)"/>
    <use xlink:href="#MicrosoftJhengHeiRegular-3bbb" transform="translate(2391.4375 0)"/>
    <use xlink:href="#MicrosoftJhengHeiRegular-5eea" transform="translate(2491.4375 0)"/>
    <use xlink:href="#MicrosoftJhengHeiRegular-2db" transform="translate(2591.4375 0)"/>
    <use xlink:href="#MicrosoftJhengHeiRegular-242f" transform="translate(2691.4375 0)"/>
    <use xlink:href="#MicrosoftJhengHeiRegular-43e5" transform="translate(2791.4375 0)"/>
    <use xlink:href="#MicrosoftJhengHeiRegular-67ed" transform="translate(2891.4375 0)"/>
    <use xlink:href="#MicrosoftJhengHeiRegular-2e76" transform="translate(2991.4375 0)"/>
    <use xlink:href="#MicrosoftJhengHeiRegular-3" transform="translate(3091.4375 0)"/>
    <use xlink:href="#MicrosoftJhengHeiRegular-2a" transform="translate(3116.4375 0)"/>
    <use xlink:href="#MicrosoftJhengHeiRegular-48" transform="translate(3190.3125 0)"/>
    <use xlink:href="#MicrosoftJhengHeiRegular-50" transform="translate(3246.65625 0)"/>
    <use xlink:href="#MicrosoftJhengHeiRegular-4c" transform="translate(3339.28125 0)"/>
    <use xlink:href="#MicrosoftJhengHeiRegular-51" transform="translate(3365.203125 0)"/>
    <use xlink:href="#MicrosoftJhengHeiRegular-4c" transform="translate(3426.046875 0)"/>
    <use xlink:href="#MicrosoftJhengHeiRegular-2bf" transform="translate(3451.96875 0)"/>
    <use xlink:href="#MicrosoftJhengHeiRegular-1c" transform="translate(3551.96875 0)"/>
    <use xlink:href="#MicrosoftJhengHeiRegular-25" transform="translate(3609.921875 0)"/>
    <use xlink:href="#MicrosoftJhengHeiRegular-2bf" transform="translate(3671.34375 0)"/>
    <use xlink:href="#MicrosoftJhengHeiRegular-17" transform="translate(3771.34375 0)"/>
    <use xlink:href="#MicrosoftJhengHeiRegular-25" transform="translate(3829.296875 0)"/>
    <use xlink:href="#MicrosoftJhengHeiRegular-2db" transform="translate(3890.71875 0)"/>
    <use xlink:href="#MicrosoftJhengHeiRegular-25" transform="translate(3990.71875 0)"/>
    <use xlink:href="#MicrosoftJhengHeiRegular-44" transform="translate(4052.140625 0)"/>
    <use xlink:href="#MicrosoftJhengHeiRegular-56" transform="translate(4106.875 0)"/>
    <use xlink:href="#MicrosoftJhengHeiRegular-48" transform="translate(4152.484375 0)"/>
    <use xlink:href="#MicrosoftJhengHeiRegular-4f" transform="translate(4208.828125 0)"/>
    <use xlink:href="#MicrosoftJhengHeiRegular-4c" transform="translate(4234.75 0)"/>
    <use xlink:href="#MicrosoftJhengHeiRegular-51" transform="translate(4260.671875 0)"/>
    <use xlink:href="#MicrosoftJhengHeiRegular-48" transform="translate(4321.515625 0)"/>
    <use xlink:href="#MicrosoftJhengHeiRegular-1df4" transform="translate(4377.859375 0)"/>
    <use xlink:href="#MicrosoftJhengHeiRegular-1eca" transform="translate(4477.859375 0)"/>
    <use xlink:href="#MicrosoftJhengHeiRegular-584f" transform="translate(4577.859375 0)"/>
    <use xlink:href="#MicrosoftJhengHeiRegular-2b" transform="translate(4677.859375 0)"/>
    <use xlink:href="#MicrosoftJhengHeiRegular-48" transform="translate(4754.125 0)"/>
    <use xlink:href="#MicrosoftJhengHeiRegular-44" transform="translate(4810.46875 0)"/>
    <use xlink:href="#MicrosoftJhengHeiRegular-4f" transform="translate(4865.203125 0)"/>
    <use xlink:href="#MicrosoftJhengHeiRegular-48" transform="translate(4891.125 0)"/>
    <use xlink:href="#MicrosoftJhengHeiRegular-55" transform="translate(4947.46875 0)"/>
    <use xlink:href="#MicrosoftJhengHeiRegular-23d6" transform="translate(4984.671875 0)"/>
    <use xlink:href="#MicrosoftJhengHeiRegular-1fd5" transform="translate(5084.671875 0)"/>
    <use xlink:href="#MicrosoftJhengHeiRegular-2f90" transform="translate(5184.671875 0)"/>
    <use xlink:href="#MicrosoftJhengHeiRegular-4a7e" transform="translate(5284.671875 0)"/>
    <use xlink:href="#MicrosoftJhengHeiRegular-23ca" transform="translate(5384.671875 0)"/>
    <use xlink:href="#MicrosoftJhengHeiRegular-2db" transform="translate(5484.671875 0)"/>
    <use xlink:href="#MicrosoftJhengHeiRegular-34" transform="translate(5584.671875 0)"/>
    <use xlink:href="#MicrosoftJhengHeiRegular-5a" transform="translate(5666.0625 0)"/>
    <use xlink:href="#MicrosoftJhengHeiRegular-48" transform="translate(5743.015625 0)"/>
    <use xlink:href="#MicrosoftJhengHeiRegular-51" transform="translate(5799.359375 0)"/>
    <use xlink:href="#MicrosoftJhengHeiRegular-3" transform="translate(5860.203125 0)"/>
    <use xlink:href="#MicrosoftJhengHeiRegular-17" transform="translate(5885.203125 0)"/>
    <use xlink:href="#MicrosoftJhengHeiRegular-25" transform="translate(5943.15625 0)"/>
    <use xlink:href="#MicrosoftJhengHeiRegular-3" transform="translate(6004.578125 0)"/>
    <use xlink:href="#MicrosoftJhengHeiRegular-25" transform="translate(6029.578125 0)"/>
    <use xlink:href="#MicrosoftJhengHeiRegular-44" transform="translate(6091 0)"/>
    <use xlink:href="#MicrosoftJhengHeiRegular-56" transform="translate(6145.734375 0)"/>
    <use xlink:href="#MicrosoftJhengHeiRegular-48" transform="translate(6191.34375 0)"/>
    <use xlink:href="#MicrosoftJhengHeiRegular-4f" transform="translate(6247.6875 0)"/>
    <use xlink:href="#MicrosoftJhengHeiRegular-4c" transform="translate(6273.609375 0)"/>
    <use xlink:href="#MicrosoftJhengHeiRegular-51" transform="translate(6299.53125 0)"/>
    <use xlink:href="#MicrosoftJhengHeiRegular-48" transform="translate(6360.375 0)"/>
    <use xlink:href="#MicrosoftJhengHeiRegular-3" transform="translate(6416.71875 0)"/>
    <use xlink:href="#MicrosoftJhengHeiRegular-53" transform="translate(6441.71875 0)"/>
    <use xlink:href="#MicrosoftJhengHeiRegular-55" transform="translate(6504.953125 0)"/>
    <use xlink:href="#MicrosoftJhengHeiRegular-48" transform="translate(6540.734375 0)"/>
    <use xlink:href="#MicrosoftJhengHeiRegular-56" transform="translate(6597.078125 0)"/>
    <use xlink:href="#MicrosoftJhengHeiRegular-48" transform="translate(6642.6875 0)"/>
    <use xlink:href="#MicrosoftJhengHeiRegular-51" transform="translate(6699.03125 0)"/>
    <use xlink:href="#MicrosoftJhengHeiRegular-57" transform="translate(6759.875 0)"/>
    <use xlink:href="#MicrosoftJhengHeiRegular-44" transform="translate(6796.15625 0)"/>
    <use xlink:href="#MicrosoftJhengHeiRegular-57" transform="translate(6850.890625 0)"/>
    <use xlink:href="#MicrosoftJhengHeiRegular-4c" transform="translate(6887.171875 0)"/>
    <use xlink:href="#MicrosoftJhengHeiRegular-52" transform="translate(6913.09375 0)"/>
    <use xlink:href="#MicrosoftJhengHeiRegular-51" transform="translate(6976.1875 0)"/>
    <use xlink:href="#MicrosoftJhengHeiRegular-3" transform="translate(7037.03125 0)"/>
    <use xlink:href="#MicrosoftJhengHeiRegular-20" transform="translate(7062.03125 0)"/>
    <use xlink:href="#MicrosoftJhengHeiRegular-3" transform="translate(7135.765625 0)"/>
    <use xlink:href="#MicrosoftJhengHeiRegular-1a" transform="translate(7160.765625 0)"/>
    <use xlink:href="#MicrosoftJhengHeiRegular-1c" transform="translate(7218.71875 0)"/>
    <use xlink:href="#MicrosoftJhengHeiRegular-12" transform="translate(7276.671875 0)"/>
    <use xlink:href="#MicrosoftJhengHeiRegular-16" transform="translate(7318.375 0)"/>
    <use xlink:href="#MicrosoftJhengHeiRegular-15" transform="translate(7376.328125 0)"/>
    <use xlink:href="#MicrosoftJhengHeiRegular-13" transform="translate(7434.28125 0)"/>
    <use xlink:href="#MicrosoftJhengHeiRegular-2db" transform="translate(7492.234375 0)"/>
   </g>
  </g>
 </g>
 <defs>
  <clipPath id="pf92dd4acf3">
   <rect x="54.921641" y="56.072051" width="509.198359" height="258.024941"/>
  </clipPath>
 </defs>
</svg>
