<?xml version="1.0" encoding="utf-8" standalone="no"?>
<!DOCTYPE svg PUBLIC "-//W3C//DTD SVG 1.1//EN"
  "http://www.w3.org/Graphics/SVG/1.1/DTD/svg11.dtd">
<svg xmlns:xlink="http://www.w3.org/1999/xlink" width="499.665625pt" height="313.584187pt" viewBox="0 0 499.665625 313.584187" xmlns="http://www.w3.org/2000/svg" version="1.1">
 <metadata>
  <rdf:RDF xmlns:dc="http://purl.org/dc/elements/1.1/" xmlns:cc="http://creativecommons.org/ns#" xmlns:rdf="http://www.w3.org/1999/02/22-rdf-syntax-ns#">
   <cc:Work>
    <dc:type rdf:resource="http://purl.org/dc/dcmitype/StillImage"/>
    <dc:date>2026-07-30T11:58:19.840534</dc:date>
    <dc:format>image/svg+xml</dc:format>
    <dc:creator>
     <cc:Agent>
      <dc:title>Matplotlib v3.9.2, https://matplotlib.org/</dc:title>
     </cc:Agent>
    </dc:creator>
   </cc:Work>
  </rdf:RDF>
 </metadata>
 <defs>
  <style type="text/css">*{stroke-linejoin: round; stroke-linecap: butt}</style>
 </defs>
 <g id="figure_1">
  <g id="patch_1">
   <path d="M 0 313.584187 
L 499.665625 313.584187 
L 499.665625 0 
L 0 0 
z
" style="fill: #ffffff"/>
  </g>
  <g id="axes_1">
   <g id="patch_2">
    <path d="M 46.065625 288.9045 
L 492.465625 288.9045 
L 492.465625 22.7925 
L 46.065625 22.7925 
z
" style="fill: #ffffff"/>
   </g>
   <g id="patch_3">
    <path d="M 66.356534 288.9045 
L 120.067764 288.9045 
L 120.067764 62.7093 
L 66.356534 62.7093 
z
" clip-path="url(#p1cca215b1c)" style="fill: #8d99ae"/>
   </g>
   <g id="patch_4">
    <path d="M 215.554395 288.9045 
L 269.265625 288.9045 
L 269.265625 209.853582 
L 215.554395 209.853582 
z
" clip-path="url(#p1cca215b1c)" style="fill: #8d99ae"/>
   </g>
   <g id="patch_5">
    <path d="M 364.752256 288.9045 
L 418.463486 288.9045 
L 418.463486 227.072594 
L 364.752256 227.072594 
z
" clip-path="url(#p1cca215b1c)" style="fill: #8d99ae"/>
   </g>
   <g id="patch_6">
    <path d="M 120.067764 288.9045 
L 173.778994 288.9045 
L 173.778994 62.7093 
L 120.067764 62.7093 
z
" clip-path="url(#p1cca215b1c)" style="fill: #2b2d42"/>
   </g>
   <g id="patch_7">
    <path d="M 269.265625 288.9045 
L 322.976855 288.9045 
L 322.976855 209.0709 
L 269.265625 209.0709 
z
" clip-path="url(#p1cca215b1c)" style="fill: #2b2d42"/>
   </g>
   <g id="patch_8">
    <path d="M 418.463486 288.9045 
L 472.174716 288.9045 
L 472.174716 220.028453 
L 418.463486 220.028453 
z
" clip-path="url(#p1cca215b1c)" style="fill: #2b2d42"/>
   </g>
   <g id="matplotlib.axis_1">
    <g id="xtick_1">
     <g id="line2d_1">
      <defs>
       <path id="md274c47836" d="M 0 0 
L 0 3.5 
" style="stroke: #000000; stroke-width: 0.8"/>
      </defs>
      <g>
       <use xlink:href="#md274c47836" x="120.067764" y="288.9045" style="stroke: #000000; stroke-width: 0.8"/>
      </g>
     </g>
     <g id="text_1">
      <!-- Gemini 3.5 Flash -->
      <g transform="translate(81.861514 303.89825) scale(0.1 -0.1)">
       <defs>
        <path id="MicrosoftJhengHeiRegular-47" d="M 4234 331 
Q 3509 -81 2622 -81 
Q 1594 -81 958 592 
Q 322 1266 322 2356 
Q 322 3475 1030 4198 
Q 1738 4922 2822 4922 
Q 3622 4922 4144 4663 
L 4144 4059 
Q 3563 4431 2756 4431 
Q 1934 4431 1407 3867 
Q 881 3303 881 2397 
Q 881 1472 1365 937 
Q 1850 403 2697 403 
Q 3281 403 3700 638 
L 3700 2022 
L 2634 2022 
L 2634 2509 
L 4234 2509 
L 4234 331 
z
" transform="scale(0.015625)"/>
        <path id="MicrosoftJhengHeiRegular-65" d="M 3322 1600 
L 872 1600 
Q 888 1003 1188 684 
Q 1488 366 2009 366 
Q 2594 366 3088 756 
L 3088 256 
Q 2634 -81 1888 -81 
Q 1166 -81 748 391 
Q 331 863 331 1719 
Q 331 2506 782 3022 
Q 1234 3538 1913 3538 
Q 2578 3538 2950 3100 
Q 3322 2663 3322 1881 
L 3322 1600 
z
M 2784 2059 
Q 2781 2547 2550 2817 
Q 2319 3088 1903 3088 
Q 1525 3088 1239 2816 
Q 953 2544 878 2059 
L 2784 2059 
z
" transform="scale(0.015625)"/>
        <path id="MicrosoftJhengHeiRegular-6d" d="M 5438 0 
L 4916 0 
L 4916 1984 
Q 4916 2588 4733 2841 
Q 4550 3094 4128 3094 
Q 3775 3094 3519 2762 
Q 3263 2431 3263 1975 
L 3263 0 
L 2744 0 
L 2744 2056 
Q 2744 3094 1941 3094 
Q 1572 3094 1330 2778 
Q 1088 2463 1088 1975 
L 1088 0 
L 566 0 
L 566 3456 
L 1088 3456 
L 1088 2909 
L 1103 2909 
Q 1466 3538 2172 3538 
Q 2509 3538 2779 3339 
Q 3050 3141 3147 2816 
Q 3531 3538 4297 3538 
Q 5438 3538 5438 2128 
L 5438 0 
z
" transform="scale(0.015625)"/>
        <path id="MicrosoftJhengHeiRegular-69" d="M 497 4700 
Q 497 4847 595 4948 
Q 694 5050 834 5050 
Q 981 5050 1082 4947 
Q 1184 4844 1184 4700 
Q 1184 4563 1082 4459 
Q 981 4356 834 4356 
Q 688 4356 592 4456 
Q 497 4556 497 4700 
z
M 569 0 
L 569 3456 
L 1088 3456 
L 1088 0 
L 569 0 
z
" transform="scale(0.015625)"/>
        <path id="MicrosoftJhengHeiRegular-6e" d="M 3406 0 
L 2884 0 
L 2884 1975 
Q 2884 3094 2066 3094 
Q 1638 3094 1363 2773 
Q 1088 2453 1088 1972 
L 1088 0 
L 566 0 
L 566 3456 
L 1088 3456 
L 1088 2878 
L 1103 2878 
Q 1491 3538 2238 3538 
Q 2806 3538 3106 3172 
Q 3406 2806 3406 2113 
L 3406 0 
z
" transform="scale(0.015625)"/>
        <path id="MicrosoftJhengHeiRegular-20" transform="scale(0.015625)"/>
        <path id="MicrosoftJhengHeiRegular-33" d="M 438 756 
Q 934 363 1556 363 
Q 2056 363 2370 616 
Q 2684 869 2684 1313 
Q 2684 2281 1319 2281 
L 919 2281 
L 919 2728 
L 1300 2728 
Q 2513 2728 2513 3634 
Q 2513 4475 1588 4475 
Q 1075 4475 625 4122 
L 625 4644 
Q 1088 4922 1719 4922 
Q 2294 4922 2670 4606 
Q 3047 4291 3047 3769 
Q 3047 2819 2075 2538 
L 2075 2525 
Q 2591 2481 2905 2162 
Q 3219 1844 3219 1369 
Q 3219 706 2742 312 
Q 2266 -81 1525 -81 
Q 844 -81 438 178 
L 438 756 
z
" transform="scale(0.015625)"/>
        <path id="MicrosoftJhengHeiRegular-2e" d="M 375 291 
Q 375 444 484 551 
Q 594 659 738 659 
Q 888 659 994 551 
Q 1100 444 1100 291 
Q 1100 141 992 33 
Q 884 -75 738 -75 
Q 594 -75 484 29 
Q 375 134 375 291 
z
" transform="scale(0.015625)"/>
        <path id="MicrosoftJhengHeiRegular-35" d="M 553 684 
Q 1047 363 1559 363 
Q 2072 363 2394 658 
Q 2716 953 2716 1441 
Q 2716 1931 2394 2200 
Q 2072 2469 1466 2469 
Q 1275 2469 706 2431 
L 706 4841 
L 3025 4841 
L 3025 4366 
L 1203 4366 
L 1203 2916 
Q 1475 2931 1616 2931 
Q 2378 2931 2811 2548 
Q 3244 2166 3244 1472 
Q 3244 750 2775 334 
Q 2306 -81 1544 -81 
Q 875 -81 553 119 
L 553 684 
z
" transform="scale(0.015625)"/>
        <path id="MicrosoftJhengHeiRegular-46" d="M 3075 4353 
L 1172 4353 
L 1172 2647 
L 2934 2647 
L 2934 2159 
L 1172 2159 
L 1172 0 
L 641 0 
L 641 4841 
L 3075 4841 
L 3075 4353 
z
" transform="scale(0.015625)"/>
        <path id="MicrosoftJhengHeiRegular-6c" d="M 569 0 
L 569 5116 
L 1088 5116 
L 1088 0 
L 569 0 
z
" transform="scale(0.015625)"/>
        <path id="MicrosoftJhengHeiRegular-61" d="M 647 3209 
Q 1156 3538 1813 3538 
Q 3016 3538 3016 2259 
L 3016 0 
L 2494 0 
L 2494 544 
L 2475 544 
Q 2116 -81 1413 -81 
Q 900 -81 604 192 
Q 309 466 309 916 
Q 309 1875 1447 2038 
L 2491 2188 
Q 2491 3088 1772 3088 
Q 1144 3088 647 2659 
L 647 3209 
z
M 1644 1641 
Q 1200 1581 1026 1426 
Q 853 1272 853 950 
Q 853 691 1039 528 
Q 1225 366 1525 366 
Q 1941 366 2216 662 
Q 2491 959 2491 1403 
L 2491 1753 
L 1644 1641 
z
" transform="scale(0.015625)"/>
        <path id="MicrosoftJhengHeiRegular-73" d="M 350 703 
Q 803 369 1344 369 
Q 2081 369 2081 866 
Q 2081 1084 1920 1221 
Q 1759 1359 1288 1538 
Q 725 1759 540 1984 
Q 356 2209 356 2544 
Q 356 2988 736 3263 
Q 1116 3538 1669 3538 
Q 2113 3538 2463 3381 
L 2463 2838 
Q 2081 3088 1584 3088 
Q 1278 3088 1086 2950 
Q 894 2813 894 2588 
Q 894 2363 1026 2244 
Q 1159 2125 1625 1934 
Q 2216 1709 2417 1479 
Q 2619 1250 2619 916 
Q 2619 453 2239 186 
Q 1859 -81 1266 -81 
Q 731 -81 350 128 
L 350 703 
z
" transform="scale(0.015625)"/>
        <path id="MicrosoftJhengHeiRegular-68" d="M 3406 0 
L 2888 0 
L 2888 1994 
Q 2888 3094 2066 3094 
Q 1650 3094 1369 2775 
Q 1088 2456 1088 1956 
L 1088 0 
L 566 0 
L 566 5116 
L 1088 5116 
L 1088 2878 
L 1103 2878 
Q 1500 3538 2241 3538 
Q 3406 3538 3406 2128 
L 3406 0 
z
" transform="scale(0.015625)"/>
       </defs>
       <use xlink:href="#MicrosoftJhengHeiRegular-47"/>
       <use xlink:href="#MicrosoftJhengHeiRegular-65" x="73.876953"/>
       <use xlink:href="#MicrosoftJhengHeiRegular-6d" x="130.224609"/>
       <use xlink:href="#MicrosoftJhengHeiRegular-69" x="222.851562"/>
       <use xlink:href="#MicrosoftJhengHeiRegular-6e" x="248.779297"/>
       <use xlink:href="#MicrosoftJhengHeiRegular-69" x="309.619141"/>
       <use xlink:href="#MicrosoftJhengHeiRegular-20" x="335.546875"/>
       <use xlink:href="#MicrosoftJhengHeiRegular-33" x="360.546875"/>
       <use xlink:href="#MicrosoftJhengHeiRegular-2e" x="418.505859"/>
       <use xlink:href="#MicrosoftJhengHeiRegular-35" x="441.552734"/>
       <use xlink:href="#MicrosoftJhengHeiRegular-20" x="499.511719"/>
       <use xlink:href="#MicrosoftJhengHeiRegular-46" x="524.511719"/>
       <use xlink:href="#MicrosoftJhengHeiRegular-6c" x="577.001953"/>
       <use xlink:href="#MicrosoftJhengHeiRegular-61" x="602.929688"/>
       <use xlink:href="#MicrosoftJhengHeiRegular-73" x="657.666016"/>
       <use xlink:href="#MicrosoftJhengHeiRegular-68" x="703.271484"/>
      </g>
     </g>
    </g>
    <g id="xtick_2">
     <g id="line2d_2">
      <g>
       <use xlink:href="#md274c47836" x="269.265625" y="288.9045" style="stroke: #000000; stroke-width: 0.8"/>
      </g>
     </g>
     <g id="text_2">
      <!-- Qwen 9B -->
      <g transform="translate(248.26875 303.89825) scale(0.1 -0.1)">
       <defs>
        <path id="MicrosoftJhengHeiRegular-51" d="M 3138 -19 
L 4309 -1191 
L 3566 -1191 
L 2556 -78 
Q 1475 -59 898 617 
Q 322 1294 322 2363 
Q 322 3519 923 4217 
Q 1525 4916 2669 4916 
Q 3716 4916 4302 4242 
Q 4888 3569 4888 2484 
Q 4888 1478 4456 814 
Q 4025 150 3138 -19 
z
M 2625 4441 
Q 1806 4441 1342 3880 
Q 878 3319 878 2413 
Q 878 1503 1328 950 
Q 1778 397 2581 397 
Q 3413 397 3872 939 
Q 4331 1481 4331 2413 
Q 4331 3369 3901 3905 
Q 3472 4441 2625 4441 
z
" transform="scale(0.015625)"/>
        <path id="MicrosoftJhengHeiRegular-77" d="M 4878 3456 
L 3841 0 
L 3300 0 
L 2575 2503 
Q 2534 2644 2522 2816 
L 2509 2816 
Q 2506 2728 2438 2509 
L 1653 0 
L 1134 0 
L 84 3456 
L 631 3456 
L 1363 834 
Q 1397 709 1409 528 
L 1434 528 
Q 1447 672 1497 841 
L 2306 3456 
L 2781 3456 
L 3509 828 
Q 3538 722 3559 522 
L 3588 522 
Q 3591 650 3644 828 
L 4363 3456 
L 4878 3456 
z
" transform="scale(0.015625)"/>
        <path id="MicrosoftJhengHeiRegular-39" d="M 584 591 
Q 994 363 1438 363 
Q 2097 363 2469 902 
Q 2841 1441 2841 2434 
Q 2834 2428 2828 2434 
Q 2516 1803 1741 1803 
Q 1116 1803 719 2231 
Q 322 2659 322 3309 
Q 322 4000 745 4461 
Q 1169 4922 1866 4922 
Q 2594 4922 2981 4351 
Q 3369 3781 3369 2713 
Q 3369 1394 2861 656 
Q 2353 -81 1416 -81 
Q 931 -81 584 81 
L 584 591 
z
M 856 3388 
Q 856 2881 1122 2576 
Q 1388 2272 1853 2272 
Q 2266 2272 2536 2545 
Q 2806 2819 2806 3206 
Q 2806 3747 2536 4111 
Q 2266 4475 1816 4475 
Q 1394 4475 1125 4158 
Q 856 3841 856 3388 
z
" transform="scale(0.015625)"/>
        <path id="MicrosoftJhengHeiRegular-42" d="M 641 0 
L 641 4841 
L 1994 4841 
Q 2597 4841 2965 4537 
Q 3334 4234 3334 3734 
Q 3334 3328 3117 3022 
Q 2900 2716 2503 2581 
L 2503 2569 
Q 2988 2522 3283 2206 
Q 3578 1891 3578 1388 
Q 3578 772 3136 386 
Q 2694 0 2019 0 
L 641 0 
z
M 1172 4347 
L 1172 2756 
L 1759 2756 
Q 2241 2756 2509 2986 
Q 2778 3216 2778 3628 
Q 2778 4347 1841 4347 
L 1172 4347 
z
M 1172 2266 
L 1172 494 
L 1956 494 
Q 2456 494 2739 733 
Q 3022 972 3022 1394 
Q 3022 2266 1828 2266 
L 1172 2266 
z
" transform="scale(0.015625)"/>
       </defs>
       <use xlink:href="#MicrosoftJhengHeiRegular-51"/>
       <use xlink:href="#MicrosoftJhengHeiRegular-77" x="81.396484"/>
       <use xlink:href="#MicrosoftJhengHeiRegular-65" x="158.386719"/>
       <use xlink:href="#MicrosoftJhengHeiRegular-6e" x="214.734375"/>
       <use xlink:href="#MicrosoftJhengHeiRegular-20" x="275.574219"/>
       <use xlink:href="#MicrosoftJhengHeiRegular-39" x="300.574219"/>
       <use xlink:href="#MicrosoftJhengHeiRegular-42" x="358.533203"/>
      </g>
     </g>
    </g>
    <g id="xtick_3">
     <g id="line2d_3">
      <g>
       <use xlink:href="#md274c47836" x="418.463486" y="288.9045" style="stroke: #000000; stroke-width: 0.8"/>
      </g>
     </g>
     <g id="text_3">
      <!-- Qwen 4B -->
      <g transform="translate(397.466611 303.89825) scale(0.1 -0.1)">
       <defs>
        <path id="MicrosoftJhengHeiRegular-34" d="M 3472 1300 
L 2847 1300 
L 2847 0 
L 2328 0 
L 2328 1300 
L 41 1300 
L 41 1644 
L 2203 4841 
L 2847 4841 
L 2847 1731 
L 3472 1731 
L 3472 1300 
z
M 2328 1731 
L 2328 3863 
Q 2328 4084 2341 4366 
L 2328 4366 
Q 2303 4297 2144 3994 
L 622 1731 
L 2328 1731 
z
" transform="scale(0.015625)"/>
       </defs>
       <use xlink:href="#MicrosoftJhengHeiRegular-51"/>
       <use xlink:href="#MicrosoftJhengHeiRegular-77" x="81.396484"/>
       <use xlink:href="#MicrosoftJhengHeiRegular-65" x="158.386719"/>
       <use xlink:href="#MicrosoftJhengHeiRegular-6e" x="214.734375"/>
       <use xlink:href="#MicrosoftJhengHeiRegular-20" x="275.574219"/>
       <use xlink:href="#MicrosoftJhengHeiRegular-34" x="300.574219"/>
       <use xlink:href="#MicrosoftJhengHeiRegular-42" x="358.533203"/>
      </g>
     </g>
    </g>
   </g>
   <g id="matplotlib.axis_2">
    <g id="ytick_1">
     <g id="line2d_4">
      <defs>
       <path id="m8e71585c0a" d="M 0 0 
L -3.5 0 
" style="stroke: #000000; stroke-width: 0.8"/>
      </defs>
      <g>
       <use xlink:href="#m8e71585c0a" x="46.065625" y="288.9045" style="stroke: #000000; stroke-width: 0.8"/>
      </g>
     </g>
     <g id="text_4">
      <!-- 0 -->
      <g transform="translate(33.270312 292.901375) scale(0.1 -0.1)">
       <defs>
        <path id="MicrosoftJhengHeiRegular-30" d="M 294 2322 
Q 294 3603 711 4262 
Q 1128 4922 1916 4922 
Q 3425 4922 3425 2441 
Q 3425 1234 3011 576 
Q 2597 -81 1806 -81 
Q 1069 -81 681 550 
Q 294 1181 294 2322 
z
M 825 2350 
Q 825 363 1863 363 
Q 2891 363 2891 2378 
Q 2891 4475 1888 4475 
Q 825 4475 825 2350 
z
" transform="scale(0.015625)"/>
       </defs>
       <use xlink:href="#MicrosoftJhengHeiRegular-30"/>
      </g>
     </g>
    </g>
    <g id="ytick_2">
     <g id="line2d_5">
      <g>
       <use xlink:href="#m8e71585c0a" x="46.065625" y="249.770382" style="stroke: #000000; stroke-width: 0.8"/>
      </g>
     </g>
     <g id="text_5">
      <!-- 50 -->
      <g transform="translate(27.475 253.767257) scale(0.1 -0.1)">
       <use xlink:href="#MicrosoftJhengHeiRegular-35"/>
       <use xlink:href="#MicrosoftJhengHeiRegular-30" x="57.958984"/>
      </g>
     </g>
    </g>
    <g id="ytick_3">
     <g id="line2d_6">
      <g>
       <use xlink:href="#m8e71585c0a" x="46.065625" y="210.636265" style="stroke: #000000; stroke-width: 0.8"/>
      </g>
     </g>
     <g id="text_6">
      <!-- 100 -->
      <g transform="translate(21.679687 214.63314) scale(0.1 -0.1)">
       <defs>
        <path id="MicrosoftJhengHeiRegular-31" d="M 3313 0 
L 594 0 
L 594 466 
L 1694 466 
L 1694 4272 
L 566 3931 
L 566 4434 
L 2216 4950 
L 2216 466 
L 3313 466 
L 3313 0 
z
" transform="scale(0.015625)"/>
       </defs>
       <use xlink:href="#MicrosoftJhengHeiRegular-31"/>
       <use xlink:href="#MicrosoftJhengHeiRegular-30" x="57.958984"/>
       <use xlink:href="#MicrosoftJhengHeiRegular-30" x="115.917969"/>
      </g>
     </g>
    </g>
    <g id="ytick_4">
     <g id="line2d_7">
      <g>
       <use xlink:href="#m8e71585c0a" x="46.065625" y="171.502147" style="stroke: #000000; stroke-width: 0.8"/>
      </g>
     </g>
     <g id="text_7">
      <!-- 150 -->
      <g transform="translate(21.679687 175.499022) scale(0.1 -0.1)">
       <use xlink:href="#MicrosoftJhengHeiRegular-31"/>
       <use xlink:href="#MicrosoftJhengHeiRegular-35" x="57.958984"/>
       <use xlink:href="#MicrosoftJhengHeiRegular-30" x="115.917969"/>
      </g>
     </g>
    </g>
    <g id="ytick_5">
     <g id="line2d_8">
      <g>
       <use xlink:href="#m8e71585c0a" x="46.065625" y="132.368029" style="stroke: #000000; stroke-width: 0.8"/>
      </g>
     </g>
     <g id="text_8">
      <!-- 200 -->
      <g transform="translate(21.679687 136.364904) scale(0.1 -0.1)">
       <defs>
        <path id="MicrosoftJhengHeiRegular-32" d="M 3219 0 
L 322 0 
L 322 472 
L 1731 1891 
Q 2431 2597 2592 2914 
Q 2753 3231 2753 3588 
Q 2753 4016 2511 4247 
Q 2269 4478 1816 4478 
Q 1169 4478 572 3919 
L 572 4475 
Q 1131 4922 1884 4922 
Q 2509 4922 2886 4575 
Q 3263 4228 3263 3634 
Q 3263 3178 3014 2736 
Q 2766 2294 2075 1603 
L 947 488 
L 947 475 
L 3219 475 
L 3219 0 
z
" transform="scale(0.015625)"/>
       </defs>
       <use xlink:href="#MicrosoftJhengHeiRegular-32"/>
       <use xlink:href="#MicrosoftJhengHeiRegular-30" x="57.958984"/>
       <use xlink:href="#MicrosoftJhengHeiRegular-30" x="115.917969"/>
      </g>
     </g>
    </g>
    <g id="ytick_6">
     <g id="line2d_9">
      <g>
       <use xlink:href="#m8e71585c0a" x="46.065625" y="93.233912" style="stroke: #000000; stroke-width: 0.8"/>
      </g>
     </g>
     <g id="text_9">
      <!-- 250 -->
      <g transform="translate(21.679687 97.230787) scale(0.1 -0.1)">
       <use xlink:href="#MicrosoftJhengHeiRegular-32"/>
       <use xlink:href="#MicrosoftJhengHeiRegular-35" x="57.958984"/>
       <use xlink:href="#MicrosoftJhengHeiRegular-30" x="115.917969"/>
      </g>
     </g>
    </g>
    <g id="ytick_7">
     <g id="line2d_10">
      <g>
       <use xlink:href="#m8e71585c0a" x="46.065625" y="54.099794" style="stroke: #000000; stroke-width: 0.8"/>
      </g>
     </g>
     <g id="text_10">
      <!-- 300 -->
      <g transform="translate(21.679687 58.096669) scale(0.1 -0.1)">
       <use xlink:href="#MicrosoftJhengHeiRegular-33"/>
       <use xlink:href="#MicrosoftJhengHeiRegular-30" x="57.958984"/>
       <use xlink:href="#MicrosoftJhengHeiRegular-30" x="115.917969"/>
      </g>
     </g>
    </g>
    <g id="text_11">
     <!-- PASS / 320 -->
     <g transform="translate(15.19375 180.894594) rotate(-90) scale(0.1 -0.1)">
      <defs>
       <path id="MicrosoftJhengHeiRegular-50" d="M 1172 1838 
L 1172 0 
L 641 0 
L 641 4841 
L 1947 4841 
Q 2706 4841 3134 4462 
Q 3563 4084 3563 3400 
Q 3563 2688 3059 2250 
Q 2556 1813 1819 1838 
L 1172 1838 
z
M 1172 4350 
L 1172 2334 
L 1778 2334 
Q 2375 2334 2689 2604 
Q 3003 2875 3003 3375 
Q 3003 4350 1853 4350 
L 1172 4350 
z
" transform="scale(0.015625)"/>
       <path id="MicrosoftJhengHeiRegular-41" d="M 4353 0 
L 3763 0 
L 3238 1375 
L 1163 1375 
L 672 0 
L 78 0 
L 1941 4841 
L 2481 4841 
L 4353 0 
z
M 3056 1863 
L 2281 3953 
Q 2250 4041 2209 4272 
L 2194 4272 
Q 2159 4059 2116 3953 
L 1350 1863 
L 3056 1863 
z
" transform="scale(0.015625)"/>
       <path id="MicrosoftJhengHeiRegular-53" d="M 416 838 
Q 619 653 1001 529 
Q 1384 406 1709 406 
Q 2766 406 2766 1175 
Q 2766 1391 2656 1559 
Q 2547 1728 2361 1851 
Q 2175 1975 1628 2256 
Q 841 2659 631 2959 
Q 422 3259 422 3638 
Q 422 4222 897 4572 
Q 1372 4922 2091 4922 
Q 2816 4922 3119 4750 
L 3119 4134 
Q 2694 4428 2022 4428 
Q 1563 4428 1272 4233 
Q 981 4038 981 3684 
Q 981 3466 1082 3305 
Q 1184 3144 1359 3025 
Q 1534 2906 2041 2653 
Q 2753 2300 3037 1964 
Q 3322 1628 3322 1213 
Q 3322 594 2872 256 
Q 2422 -81 1613 -81 
Q 1366 -81 970 0 
Q 575 81 416 197 
L 416 838 
z
" transform="scale(0.015625)"/>
       <path id="MicrosoftJhengHeiRegular-2f" d="M 2719 4841 
L 397 -803 
L -88 -803 
L 2225 4841 
L 2719 4841 
z
" transform="scale(0.015625)"/>
      </defs>
      <use xlink:href="#MicrosoftJhengHeiRegular-50"/>
      <use xlink:href="#MicrosoftJhengHeiRegular-41" x="51.732422"/>
      <use xlink:href="#MicrosoftJhengHeiRegular-53" x="121.019531"/>
      <use xlink:href="#MicrosoftJhengHeiRegular-53" x="178.197266"/>
      <use xlink:href="#MicrosoftJhengHeiRegular-20" x="235.375"/>
      <use xlink:href="#MicrosoftJhengHeiRegular-2f" x="260.375"/>
      <use xlink:href="#MicrosoftJhengHeiRegular-20" x="302.074219"/>
      <use xlink:href="#MicrosoftJhengHeiRegular-33" x="327.074219"/>
      <use xlink:href="#MicrosoftJhengHeiRegular-32" x="385.033203"/>
      <use xlink:href="#MicrosoftJhengHeiRegular-30" x="442.992188"/>
     </g>
    </g>
   </g>
   <g id="patch_9">
    <path d="M 46.065625 288.9045 
L 46.065625 22.7925 
" style="fill: none; stroke: #000000; stroke-width: 0.8; stroke-linejoin: miter; stroke-linecap: square"/>
   </g>
   <g id="patch_10">
    <path d="M 46.065625 288.9045 
L 492.465625 288.9045 
" style="fill: none; stroke: #000000; stroke-width: 0.8; stroke-linejoin: miter; stroke-linecap: square"/>
   </g>
   <g id="text_12">
    <!-- 289 -->
    <g transform="translate(85.388477 58.123909) scale(0.09 -0.09)">
     <defs>
      <path id="MicrosoftJhengHeiRegular-38" d="M 1394 2550 
Q 519 2963 519 3731 
Q 519 4263 925 4592 
Q 1331 4922 1931 4922 
Q 2469 4922 2841 4614 
Q 3213 4306 3213 3806 
Q 3213 3000 2313 2550 
L 2313 2538 
Q 3372 2138 3372 1225 
Q 3372 606 2931 262 
Q 2491 -81 1753 -81 
Q 1150 -81 745 267 
Q 341 616 341 1178 
Q 341 2109 1394 2538 
L 1394 2550 
z
M 2672 3738 
Q 2672 4081 2455 4276 
Q 2238 4472 1878 4472 
Q 1547 4472 1303 4267 
Q 1059 4063 1059 3750 
Q 1059 3106 1856 2778 
Q 2672 3122 2672 3738 
z
M 1819 2284 
Q 878 1909 878 1203 
Q 878 813 1159 589 
Q 1441 366 1875 366 
Q 2294 366 2566 589 
Q 2838 813 2838 1181 
Q 2838 1919 1819 2284 
z
" transform="scale(0.015625)"/>
     </defs>
     <use xlink:href="#MicrosoftJhengHeiRegular-32"/>
     <use xlink:href="#MicrosoftJhengHeiRegular-38" x="57.958984"/>
     <use xlink:href="#MicrosoftJhengHeiRegular-39" x="115.917969"/>
    </g>
   </g>
   <g id="text_13">
    <!-- 289 -->
    <g transform="translate(139.099707 58.123909) scale(0.09 -0.09)">
     <use xlink:href="#MicrosoftJhengHeiRegular-32"/>
     <use xlink:href="#MicrosoftJhengHeiRegular-38" x="57.958984"/>
     <use xlink:href="#MicrosoftJhengHeiRegular-39" x="115.917969"/>
    </g>
   </g>
   <g id="text_14">
    <!-- 101 -->
    <g transform="translate(234.586338 205.268192) scale(0.09 -0.09)">
     <use xlink:href="#MicrosoftJhengHeiRegular-31"/>
     <use xlink:href="#MicrosoftJhengHeiRegular-30" x="57.958984"/>
     <use xlink:href="#MicrosoftJhengHeiRegular-31" x="115.917969"/>
    </g>
   </g>
   <g id="text_15">
    <!-- 102 -->
    <g transform="translate(288.297568 204.485509) scale(0.09 -0.09)">
     <use xlink:href="#MicrosoftJhengHeiRegular-31"/>
     <use xlink:href="#MicrosoftJhengHeiRegular-30" x="57.958984"/>
     <use xlink:href="#MicrosoftJhengHeiRegular-32" x="115.917969"/>
    </g>
   </g>
   <g id="text_16">
    <!-- 79 -->
    <g transform="translate(386.39209 222.487203) scale(0.09 -0.09)">
     <defs>
      <path id="MicrosoftJhengHeiRegular-37" d="M 3391 4688 
L 1459 0 
L 922 0 
L 2741 4366 
L 288 4366 
L 288 4841 
L 3391 4841 
L 3391 4688 
z
" transform="scale(0.015625)"/>
     </defs>
     <use xlink:href="#MicrosoftJhengHeiRegular-37"/>
     <use xlink:href="#MicrosoftJhengHeiRegular-39" x="57.958984"/>
    </g>
   </g>
   <g id="text_17">
    <!-- 88 -->
    <g transform="translate(440.10332 215.443062) scale(0.09 -0.09)">
     <use xlink:href="#MicrosoftJhengHeiRegular-38"/>
     <use xlink:href="#MicrosoftJhengHeiRegular-38" x="57.958984"/>
    </g>
   </g>
   <g id="text_18">
    <!-- Math16 Round 1 — Baseline vs Final PASS -->
    <g transform="translate(152.035937 16.7925) scale(0.12 -0.12)">
     <defs>
      <path id="MicrosoftJhengHeiRegular-4d" d="M 5006 0 
L 5006 3269 
Q 5006 3641 5056 4203 
L 5041 4203 
Q 4953 3859 4897 3747 
L 3209 0 
L 2972 0 
L 1288 3722 
Q 1222 3869 1147 4203 
L 1131 4203 
Q 1159 3947 1159 3278 
L 1159 0 
L 641 0 
L 641 4841 
L 1334 4841 
L 2850 1431 
Q 3028 1028 3075 859 
L 3097 859 
Q 3191 1113 3331 1447 
L 4881 4841 
L 5538 4841 
L 5538 0 
L 5006 0 
z
" transform="scale(0.015625)"/>
      <path id="MicrosoftJhengHeiRegular-74" d="M 2138 34 
Q 1947 -75 1634 -75 
Q 744 -75 744 928 
L 744 3006 
L 144 3006 
L 144 3456 
L 744 3456 
L 744 4306 
L 1263 4475 
L 1263 3456 
L 2138 3456 
L 2138 3006 
L 1263 3006 
L 1263 1022 
Q 1263 669 1381 519 
Q 1500 369 1778 369 
Q 1994 369 2138 484 
L 2138 34 
z
" transform="scale(0.015625)"/>
      <path id="MicrosoftJhengHeiRegular-36" d="M 3138 4284 
Q 2756 4475 2347 4475 
Q 1681 4475 1297 3892 
Q 913 3309 916 2328 
L 931 2328 
Q 1266 3022 2041 3022 
Q 2675 3022 3053 2609 
Q 3431 2197 3431 1525 
Q 3431 834 3006 376 
Q 2581 -81 1922 -81 
Q 1166 -81 770 509 
Q 375 1100 375 2125 
Q 375 3353 890 4137 
Q 1406 4922 2338 4922 
Q 2844 4922 3138 4781 
L 3138 4284 
z
M 953 1584 
Q 953 1072 1226 717 
Q 1500 363 1941 363 
Q 2369 363 2631 675 
Q 2894 988 2894 1459 
Q 2894 1988 2637 2281 
Q 2381 2575 1934 2575 
Q 1525 2575 1239 2287 
Q 953 2000 953 1584 
z
" transform="scale(0.015625)"/>
      <path id="MicrosoftJhengHeiRegular-52" d="M 4069 0 
L 3431 0 
L 2619 1363 
Q 2359 1800 2146 1936 
Q 1934 2072 1650 2072 
L 1172 2072 
L 1172 0 
L 641 0 
L 641 4841 
L 2066 4841 
Q 2731 4841 3125 4498 
Q 3519 4156 3519 3553 
Q 3519 2550 2447 2250 
L 2447 2238 
Q 2647 2150 2776 2009 
Q 2906 1869 3166 1453 
L 4069 0 
z
M 1172 4347 
L 1172 2566 
L 1963 2566 
Q 2403 2566 2681 2823 
Q 2959 3081 2959 3509 
Q 2959 3903 2706 4125 
Q 2453 4347 1969 4347 
L 1172 4347 
z
" transform="scale(0.015625)"/>
      <path id="MicrosoftJhengHeiRegular-6f" d="M 331 1684 
Q 331 2547 801 3042 
Q 1272 3538 2081 3538 
Q 2844 3538 3276 3059 
Q 3709 2581 3709 1738 
Q 3709 919 3240 419 
Q 2772 -81 2000 -81 
Q 1253 -81 792 400 
Q 331 881 331 1684 
z
M 863 1706 
Q 863 1094 1183 728 
Q 1503 363 2038 363 
Q 2581 363 2879 719 
Q 3178 1075 3178 1719 
Q 3178 2378 2883 2736 
Q 2588 3094 2038 3094 
Q 1500 3094 1181 2723 
Q 863 2353 863 1706 
z
" transform="scale(0.015625)"/>
      <path id="MicrosoftJhengHeiRegular-75" d="M 3331 0 
L 2809 0 
L 2809 547 
L 2797 547 
Q 2456 -81 1731 -81 
Q 494 -81 494 1391 
L 494 3456 
L 1009 3456 
L 1009 1478 
Q 1009 363 1859 363 
Q 2278 363 2543 672 
Q 2809 981 2809 1466 
L 2809 3456 
L 3331 3456 
L 3331 0 
z
" transform="scale(0.015625)"/>
      <path id="MicrosoftJhengHeiRegular-64" d="M 3488 0 
L 2969 0 
L 2969 594 
L 2956 594 
Q 2572 -81 1763 -81 
Q 1106 -81 718 386 
Q 331 853 331 1647 
Q 331 2497 765 3017 
Q 1200 3538 1913 3538 
Q 2625 3538 2956 2972 
L 2969 2972 
L 2969 5116 
L 3488 5116 
L 3488 0 
z
M 2969 2081 
Q 2969 2506 2680 2800 
Q 2391 3094 1972 3094 
Q 1453 3094 1158 2711 
Q 863 2328 863 1675 
Q 863 1078 1145 720 
Q 1428 363 1906 363 
Q 2366 363 2667 698 
Q 2969 1034 2969 1556 
L 2969 2081 
z
" transform="scale(0.015625)"/>
      <path id="MicrosoftJhengHeiRegular-2014" d="M 6913 1722 
L 0 1722 
L 0 2138 
L 6913 2138 
L 6913 1722 
z
" transform="scale(0.015625)"/>
      <path id="MicrosoftJhengHeiRegular-76" d="M 3247 3456 
L 1863 0 
L 1363 0 
L 50 3456 
L 625 3456 
L 1516 919 
Q 1619 625 1638 447 
L 1653 447 
Q 1694 731 1759 906 
L 2697 3456 
L 3247 3456 
z
" transform="scale(0.015625)"/>
     </defs>
     <use xlink:href="#MicrosoftJhengHeiRegular-4d"/>
     <use xlink:href="#MicrosoftJhengHeiRegular-61" x="96.533203"/>
     <use xlink:href="#MicrosoftJhengHeiRegular-74" x="151.269531"/>
     <use xlink:href="#MicrosoftJhengHeiRegular-68" x="187.548828"/>
     <use xlink:href="#MicrosoftJhengHeiRegular-31" x="248.4375"/>
     <use xlink:href="#MicrosoftJhengHeiRegular-36" x="306.396484"/>
     <use xlink:href="#MicrosoftJhengHeiRegular-20" x="364.355469"/>
     <use xlink:href="#MicrosoftJhengHeiRegular-52" x="389.355469"/>
     <use xlink:href="#MicrosoftJhengHeiRegular-6f" x="450.439453"/>
     <use xlink:href="#MicrosoftJhengHeiRegular-75" x="513.525391"/>
     <use xlink:href="#MicrosoftJhengHeiRegular-6e" x="574.365234"/>
     <use xlink:href="#MicrosoftJhengHeiRegular-64" x="635.205078"/>
     <use xlink:href="#MicrosoftJhengHeiRegular-20" x="698.583984"/>
     <use xlink:href="#MicrosoftJhengHeiRegular-31" x="723.583984"/>
     <use xlink:href="#MicrosoftJhengHeiRegular-20" x="781.542969"/>
     <use xlink:href="#MicrosoftJhengHeiRegular-2014" x="806.542969"/>
     <use xlink:href="#MicrosoftJhengHeiRegular-20" x="914.550781"/>
     <use xlink:href="#MicrosoftJhengHeiRegular-42" x="939.550781"/>
     <use xlink:href="#MicrosoftJhengHeiRegular-61" x="1000.976562"/>
     <use xlink:href="#MicrosoftJhengHeiRegular-73" x="1055.712891"/>
     <use xlink:href="#MicrosoftJhengHeiRegular-65" x="1101.318359"/>
     <use xlink:href="#MicrosoftJhengHeiRegular-6c" x="1157.666016"/>
     <use xlink:href="#MicrosoftJhengHeiRegular-69" x="1183.59375"/>
     <use xlink:href="#MicrosoftJhengHeiRegular-6e" x="1209.521484"/>
     <use xlink:href="#MicrosoftJhengHeiRegular-65" x="1270.361328"/>
     <use xlink:href="#MicrosoftJhengHeiRegular-20" x="1326.708984"/>
     <use xlink:href="#MicrosoftJhengHeiRegular-76" x="1351.708984"/>
     <use xlink:href="#MicrosoftJhengHeiRegular-73" x="1402.978516"/>
     <use xlink:href="#MicrosoftJhengHeiRegular-20" x="1448.583984"/>
     <use xlink:href="#MicrosoftJhengHeiRegular-46" x="1473.583984"/>
     <use xlink:href="#MicrosoftJhengHeiRegular-69" x="1526.074219"/>
     <use xlink:href="#MicrosoftJhengHeiRegular-6e" x="1552.001953"/>
     <use xlink:href="#MicrosoftJhengHeiRegular-61" x="1612.841797"/>
     <use xlink:href="#MicrosoftJhengHeiRegular-6c" x="1667.578125"/>
     <use xlink:href="#MicrosoftJhengHeiRegular-20" x="1693.505859"/>
     <use xlink:href="#MicrosoftJhengHeiRegular-50" x="1718.505859"/>
     <use xlink:href="#MicrosoftJhengHeiRegular-41" x="1770.238281"/>
     <use xlink:href="#MicrosoftJhengHeiRegular-53" x="1839.525391"/>
     <use xlink:href="#MicrosoftJhengHeiRegular-53" x="1896.703125"/>
    </g>
   </g>
   <g id="legend_1">
    <g id="patch_11">
     <path d="M 390.715625 39.78625 
L 410.715625 39.78625 
L 410.715625 32.78625 
L 390.715625 32.78625 
z
" style="fill: #8d99ae"/>
    </g>
    <g id="text_19">
     <!-- Baseline PASS -->
     <g transform="translate(418.715625 39.78625) scale(0.1 -0.1)">
      <use xlink:href="#MicrosoftJhengHeiRegular-42"/>
      <use xlink:href="#MicrosoftJhengHeiRegular-61" x="61.425781"/>
      <use xlink:href="#MicrosoftJhengHeiRegular-73" x="116.162109"/>
      <use xlink:href="#MicrosoftJhengHeiRegular-65" x="161.767578"/>
      <use xlink:href="#MicrosoftJhengHeiRegular-6c" x="218.115234"/>
      <use xlink:href="#MicrosoftJhengHeiRegular-69" x="244.042969"/>
      <use xlink:href="#MicrosoftJhengHeiRegular-6e" x="269.970703"/>
      <use xlink:href="#MicrosoftJhengHeiRegular-65" x="330.810547"/>
      <use xlink:href="#MicrosoftJhengHeiRegular-20" x="387.158203"/>
      <use xlink:href="#MicrosoftJhengHeiRegular-50" x="412.158203"/>
      <use xlink:href="#MicrosoftJhengHeiRegular-41" x="463.890625"/>
      <use xlink:href="#MicrosoftJhengHeiRegular-53" x="533.177734"/>
      <use xlink:href="#MicrosoftJhengHeiRegular-53" x="590.355469"/>
     </g>
    </g>
    <g id="patch_12">
     <path d="M 390.715625 55.265937 
L 410.715625 55.265937 
L 410.715625 48.265937 
L 390.715625 48.265937 
z
" style="fill: #2b2d42"/>
    </g>
    <g id="text_20">
     <!-- Final PASS -->
     <g transform="translate(418.715625 55.265937) scale(0.1 -0.1)">
      <use xlink:href="#MicrosoftJhengHeiRegular-46"/>
      <use xlink:href="#MicrosoftJhengHeiRegular-69" x="52.490234"/>
      <use xlink:href="#MicrosoftJhengHeiRegular-6e" x="78.417969"/>
      <use xlink:href="#MicrosoftJhengHeiRegular-61" x="139.257812"/>
      <use xlink:href="#MicrosoftJhengHeiRegular-6c" x="193.994141"/>
      <use xlink:href="#MicrosoftJhengHeiRegular-20" x="219.921875"/>
      <use xlink:href="#MicrosoftJhengHeiRegular-50" x="244.921875"/>
      <use xlink:href="#MicrosoftJhengHeiRegular-41" x="296.654297"/>
      <use xlink:href="#MicrosoftJhengHeiRegular-53" x="365.941406"/>
      <use xlink:href="#MicrosoftJhengHeiRegular-53" x="423.119141"/>
     </g>
    </g>
   </g>
  </g>
 </g>
 <defs>
  <clipPath id="p1cca215b1c">
   <rect x="46.065625" y="22.7925" width="446.4" height="266.112"/>
  </clipPath>
 </defs>
</svg>
